<svg width="15" height="16" viewBox="0 0 15 16" fill="none" xmlns="http://www.w3.org/2000/svg">
<g clip-path="url(#clip0_5543_30465)">
<path fill-rule="evenodd" clip-rule="evenodd" d="M8.66586 1.58389C8.00467 1.39932 7.38545 1.59884 6.9454 2.00318C6.51217 2.40126 6.25007 2.99617 6.25007 3.63271V7.67141C6.25007 8.43603 6.86992 9.05588 7.63454 9.05588H11.6732C12.3098 9.05588 12.9047 8.79378 13.3028 8.36055C13.7071 7.9205 13.9066 7.30128 13.7221 6.64009C13.0391 4.1934 11.1125 2.26687 8.66586 1.58389ZM7.155 3.63271C7.155 3.23978 7.31796 2.88979 7.55767 2.66953C7.79057 2.45553 8.09219 2.36328 8.42256 2.4555C10.5643 3.05336 12.2526 4.74162 12.8505 6.8834C12.9427 7.21376 12.8504 7.51538 12.6364 7.74828C12.4162 7.98799 12.0662 8.15095 11.6732 8.15095H7.63454C7.3697 8.15095 7.155 7.93625 7.155 7.67141V3.63271Z" fill="white"/>
<path d="M5.29828 3.60551C5.53669 3.53063 5.66925 3.27667 5.59437 3.03826C5.51949 2.79985 5.26553 2.66729 5.02712 2.74217C2.58952 3.50777 0.820496 5.78482 0.820496 8.47622C0.820496 11.795 3.51092 14.4855 6.82973 14.4855C9.52114 14.4855 11.7982 12.7164 12.5638 10.2788C12.6387 10.0404 12.5061 9.78646 12.2677 9.71158C12.0293 9.6367 11.7753 9.76926 11.7004 10.0077C11.0499 12.079 9.11457 13.5805 6.82973 13.5805C4.0107 13.5805 1.72542 11.2953 1.72542 8.47622C1.72542 6.19138 3.227 4.25606 5.29828 3.60551Z" fill="white"/>
<path fill-rule="evenodd" clip-rule="evenodd" d="M8.66586 1.58389C8.00467 1.39932 7.38545 1.59884 6.9454 2.00318C6.51217 2.40126 6.25007 2.99617 6.25007 3.63271V7.67141C6.25007 8.43603 6.86992 9.05588 7.63454 9.05588H11.6732C12.3098 9.05588 12.9047 8.79378 13.3028 8.36055C13.7071 7.9205 13.9066 7.30128 13.7221 6.64009C13.0391 4.1934 11.1125 2.26687 8.66586 1.58389ZM7.155 3.63271C7.155 3.23978 7.31796 2.88979 7.55767 2.66953C7.79057 2.45553 8.09219 2.36328 8.42256 2.4555C10.5643 3.05336 12.2526 4.74162 12.8505 6.8834C12.9427 7.21376 12.8504 7.51538 12.6364 7.74828C12.4162 7.98799 12.0662 8.15095 11.6732 8.15095H7.63454C7.3697 8.15095 7.155 7.93625 7.155 7.67141V3.63271Z" stroke="white"/>
<path d="M5.29828 3.60551C5.53669 3.53063 5.66925 3.27667 5.59437 3.03826C5.51949 2.79985 5.26553 2.66729 5.02712 2.74217C2.58952 3.50777 0.820496 5.78482 0.820496 8.47622C0.820496 11.795 3.51092 14.4855 6.82973 14.4855C9.52114 14.4855 11.7982 12.7164 12.5638 10.2788C12.6387 10.0404 12.5061 9.78646 12.2677 9.71158C12.0293 9.6367 11.7753 9.76926 11.7004 10.0077C11.0499 12.079 9.11457 13.5805 6.82973 13.5805C4.0107 13.5805 1.72542 11.2953 1.72542 8.47622C1.72542 6.19138 3.227 4.25606 5.29828 3.60551Z" stroke="white"/>
</g>
<defs>
<clipPath id="clip0_5543_30465">
<rect width="14.4789" height="14.4789" fill="white" transform="translate(0.0664062 0.760742)"/>
</clipPath>
</defs>
</svg>
