<svg xmlns="http://www.w3.org/2000/svg" width="64" height="64" viewBox="0 0 64 64" fill="none">
  <path d="M18.6704 10.6687C21.6115 10.6687 24.0033 8.27691 24.0033 5.33582C24.0033 2.39473 21.6115 0.00292969 18.6704 0.00292969C15.7294 0.00292969 13.3376 2.39473 13.3376 5.33582C13.3376 8.27691 15.7294 10.6687 18.6704 10.6687ZM18.6704 2.66937C20.1397 2.66937 21.3369 3.86661 21.3369 5.33582C21.3369 6.80503 20.1397 8.00226 18.6704 8.00226C17.2012 8.00226 16.004 6.80503 16.004 5.33582C16.004 3.86661 17.2012 2.66937 18.6704 2.66937ZM32.0027 18.668C34.9438 18.668 37.3356 16.2762 37.3356 13.3352C37.3356 10.3941 34.9438 8.00226 32.0027 8.00226C29.0616 8.00226 26.6698 10.3941 26.6698 13.3352C26.6698 16.2762 29.0616 18.668 32.0027 18.668ZM32.0027 10.6687C33.4719 10.6687 34.6691 11.8659 34.6691 13.3352C34.6691 14.8044 33.4719 16.0016 32.0027 16.0016C30.5335 16.0016 29.3362 14.8044 29.3362 13.3352C29.3362 11.8659 30.5335 10.6687 32.0027 10.6687ZM45.3349 10.6687C48.276 10.6687 50.6678 8.27691 50.6678 5.33582C50.6678 2.39473 48.276 0.00292969 45.3349 0.00292969C42.3938 0.00292969 40.002 2.39473 40.002 5.33582C40.002 8.27691 42.3938 10.6687 45.3349 10.6687ZM45.3349 2.66937C46.8041 2.66937 48.0013 3.86661 48.0013 5.33582C48.0013 6.80503 46.8041 8.00226 45.3349 8.00226C43.8657 8.00226 42.6684 6.80503 42.6684 5.33582C42.6684 3.86661 43.8657 2.66937 45.3349 2.66937ZM64 17.3348V44.2686C64 49.6095 61.9202 54.633 58.1418 58.4087L52.9423 63.6083C52.6809 63.8696 52.3396 63.9976 51.9983 63.9976C51.657 63.9976 51.3157 63.8669 51.0544 63.6083C50.5345 63.0883 50.5345 62.2431 51.0544 61.7231L56.254 56.5236C59.5284 53.2492 61.3309 48.8975 61.3309 44.2686V17.3348C61.3309 15.1297 59.5364 13.3352 57.3312 13.3352C55.1261 13.3352 53.3316 15.1297 53.3316 17.3348C53.3316 17.3348 53.3076 38.765 53.3022 38.8184C53.2676 40.2876 52.7716 41.7488 51.7744 42.9353L44.7403 50.2574C44.479 50.5294 44.1297 50.6654 43.7803 50.6654C43.447 50.6654 43.1137 50.5427 42.8551 50.2921C42.3245 49.7828 42.3085 48.9375 42.8178 48.4069L49.7932 41.1515C50.3958 40.4316 50.6891 39.5116 50.6678 38.5864V38.5757C50.6438 37.6505 50.3078 36.7252 49.6492 35.9893C48.1827 34.3547 45.6575 34.2134 44.015 35.68L36.7383 42.3781C35.3491 43.658 34.2718 45.1885 33.4639 46.8897C34.2398 48.8762 34.6691 51.0013 34.6691 53.1718V62.6617C34.6691 63.3976 34.0718 63.9949 33.3359 63.9949C32.5999 63.9949 32.0027 63.3976 32.0027 62.6617V53.1718C32.0027 49.0815 30.2775 45.1485 27.2671 42.3807L19.977 35.672C18.3531 34.2161 15.8227 34.3547 14.3561 35.9919C13.0389 37.4611 13.0042 39.709 14.2708 41.2182L21.1849 48.4042C21.6942 48.9348 21.6782 49.7801 21.1476 50.2894C20.6143 50.8014 19.7717 50.7827 19.2624 50.2521L12.287 42.9967C11.2737 41.7941 10.7244 40.3382 10.6684 38.8797C10.6551 38.805 10.6684 17.3295 10.6684 17.3295C10.6684 15.1243 8.87393 13.3298 6.66878 13.3298C4.46363 13.3298 2.66911 15.1243 2.66911 17.3295V44.2632C2.66911 48.8922 4.47163 53.2465 7.74602 56.5182L12.9456 61.7178C13.4655 62.2377 13.4655 63.083 12.9456 63.603C12.6843 63.8643 12.343 63.9923 12.0017 63.9923C11.6604 63.9923 11.3191 63.8616 11.0577 63.603L5.85818 58.4034C2.07983 54.625 0 49.6041 0 44.2632V17.3348C0 13.6605 2.99175 10.6687 6.66611 10.6687C9.72986 10.6687 12.2896 12.7565 13.0656 15.5776C14.5428 14.1937 16.516 13.3352 18.6651 13.3352C19.7664 13.3352 20.8329 13.5485 21.8435 13.9698C22.5235 14.2524 22.8434 15.0337 22.5608 15.7136C22.2781 16.3936 21.4995 16.7189 20.8169 16.4309C20.1343 16.1482 19.409 16.0016 18.6624 16.0016C16.1027 16.0016 13.8788 17.7561 13.3296 20.1826V33.3335C15.8173 31.4696 19.3584 31.5496 21.7609 33.6988L29.0642 40.4209C30.2108 41.4741 31.1787 42.6847 31.992 43.9833C32.8079 42.6767 33.7785 41.4768 34.9251 40.4209L42.2151 33.7121C44.6283 31.5496 48.172 31.4696 50.6598 33.3335V20.1826C50.1105 17.7561 47.8867 16.0016 45.3269 16.0016C44.5803 16.0016 43.855 16.1456 43.1724 16.4309C42.4978 16.7162 41.7139 16.3936 41.4285 15.7136C41.1459 15.0337 41.4659 14.2524 42.1458 13.9698C43.1564 13.5485 44.2256 13.3352 45.3242 13.3352C47.4734 13.3352 49.4465 14.1937 50.9238 15.5776C51.7024 12.7592 54.2621 10.6687 57.3232 10.6687C60.9976 10.6687 63.9893 13.6605 63.9893 17.3348H64ZM22.3688 27.4166C24.198 23.665 27.939 21.3345 32.136 21.3345C36.333 21.3345 40.0767 23.665 41.9032 27.4166C42.2258 28.0806 41.8472 29.4378 40.7059 29.3338C40.21 29.3338 39.738 29.0592 39.506 28.5845C38.1275 25.7554 35.3037 24.0009 32.1333 24.0009C28.9629 24.0009 26.1392 25.7581 24.7606 28.5845C24.438 29.2458 23.6434 29.5258 22.9794 29.1978C22.3181 28.8752 22.0435 28.0779 22.3661 27.4166H22.3688Z" fill="#338499"/>
</svg>
