<svg width="19" height="20" viewBox="0 0 19 20" fill="none" xmlns="http://www.w3.org/2000/svg">
<path d="M10.8116 17.5079L11.2281 16.804L10.2368 16.2169L9.81948 16.9208L10.8116 17.5079ZM7.733 16.804L8.14952 17.5079L9.14089 16.9208L8.72513 16.2169L7.733 16.804ZM9.81948 16.9208C9.78356 16.9783 9.73361 17.0257 9.67432 17.0586C9.61503 17.0914 9.54836 17.1087 9.48057 17.1087C9.41278 17.1087 9.34611 17.0914 9.28682 17.0586C9.22753 17.0257 9.17758 16.9783 9.14166 16.9208L8.14952 17.5079C8.74358 18.5124 10.2168 18.5124 10.8116 17.5079L9.81948 16.9208ZM8.32782 2.89103H10.6333V1.73828H8.32782V2.89103ZM16.5892 8.84692V9.61542H17.742V8.84692H16.5892ZM2.37193 9.61542V8.84692H1.21918V9.61542H2.37193ZM1.21918 9.61542C1.21918 10.503 1.21918 11.197 1.2576 11.7572C1.29603 12.3221 1.37518 12.7924 1.55578 13.2274L2.62092 12.7863C2.50795 12.5157 2.44186 12.1853 2.40728 11.6788C2.37193 11.167 2.37193 10.5184 2.37193 9.61542H1.21918ZM6.25517 14.7967C5.28993 14.7798 4.78426 14.7183 4.38771 14.5538L3.94736 15.619C4.566 15.8756 5.26995 15.9333 6.23519 15.9502L6.25517 14.7967ZM1.55578 13.2274C1.77785 13.7635 2.10335 14.2507 2.5137 14.661C2.92405 15.0714 3.41121 15.3969 3.94736 15.619L4.38771 14.5538C3.58745 14.2223 2.95242 13.5865 2.62092 12.7863L1.55578 13.2274ZM16.5892 9.61542C16.5892 10.5184 16.5892 11.167 16.5539 11.6788C16.5193 12.1853 16.4532 12.5157 16.341 12.7863L17.4054 13.2274C17.586 12.7924 17.6651 12.3221 17.7043 11.7572C17.7427 11.197 17.742 10.503 17.742 9.61542H16.5892ZM12.726 15.9486C13.6912 15.9325 14.3951 15.8756 15.0138 15.619L14.5727 14.5538C14.1769 14.7183 13.6712 14.7798 12.7067 14.7967L12.726 15.9486ZM16.341 12.7863C16.0095 13.5865 15.3737 14.2223 14.5734 14.5538L15.0138 15.619C15.5499 15.3969 16.0371 15.0714 16.4474 14.661C16.8578 14.2507 17.1833 13.7635 17.4054 13.2274L16.341 12.7863ZM10.6333 2.89103C11.9021 2.89103 12.8136 2.89103 13.5244 2.95943C14.2268 3.02629 14.6733 3.15386 15.0299 3.37212L15.6317 2.3892C15.0637 2.04184 14.4197 1.8866 13.6336 1.81129C12.8558 1.73751 11.8798 1.73828 10.6333 1.73828V2.89103ZM17.742 8.84692C17.742 7.60041 17.742 6.62518 17.6682 5.84669C17.5936 5.06051 17.4384 4.41574 17.091 3.84859L16.1074 4.45032C16.3264 4.80691 16.454 5.25341 16.5208 5.95659C16.5884 6.66668 16.5892 7.57812 16.5892 8.84692H17.742ZM15.0292 3.37212C15.4689 3.64132 15.8386 4.0108 16.1081 4.45032L17.091 3.84859C16.7266 3.25375 16.2265 2.75365 15.6317 2.3892L15.0292 3.37212ZM8.32782 1.73828C7.08131 1.73828 6.10608 1.73828 5.32759 1.81129C4.54141 1.8866 3.89664 2.04184 3.32948 2.3892L3.93122 3.37288C4.2878 3.15386 4.7343 3.02629 5.43748 2.95943C6.14758 2.8918 7.05902 2.89103 8.32782 2.89103V1.73828ZM2.37193 8.84692C2.37193 7.57812 2.37193 6.66668 2.44033 5.95582C2.50719 5.25341 2.63476 4.80691 2.85301 4.45032L1.8701 3.84936C1.52274 4.41651 1.3675 5.06051 1.29218 5.84669C1.21918 6.62595 1.21918 7.60041 1.21918 8.84692H2.37193ZM3.32948 2.3892C2.73465 2.75365 2.23454 3.25452 1.8701 3.84936L2.85378 4.45032C3.12286 4.01097 3.49206 3.64151 3.93122 3.37212L3.32948 2.3892ZM8.72436 16.2169C8.56913 15.9533 8.43233 15.7204 8.29861 15.5375C8.1616 15.3365 7.98283 15.1674 7.7745 15.0418L7.19505 16.0386C7.23116 16.0601 7.28112 16.0985 7.36719 16.2169C7.46018 16.3444 7.56546 16.5212 7.733 16.804L8.72436 16.2169ZM6.23519 15.9486C6.57333 15.9548 6.7862 15.9594 6.94913 15.9771C7.10129 15.994 7.16046 16.0186 7.19505 16.0386L7.7745 15.0418C7.55974 14.9216 7.32133 14.8498 7.07593 14.8312C6.84691 14.8059 6.57179 14.802 6.25517 14.7967L6.23519 15.9486ZM11.2281 16.804C11.3957 16.5219 11.501 16.3444 11.5939 16.2169C11.68 16.0985 11.73 16.0601 11.7661 16.0386L11.1866 15.0418C10.9638 15.1725 10.8024 15.3454 10.6625 15.5375C10.5296 15.7204 10.392 15.9525 10.236 16.2169L11.2281 16.804ZM12.7067 14.7967C12.3901 14.802 12.1142 14.8059 11.8852 14.8312C11.6462 14.8581 11.4118 14.9112 11.1866 15.0418L11.7661 16.0386C11.8007 16.0186 11.8598 15.994 12.012 15.9771C12.1749 15.9594 12.3886 15.954 12.7267 15.9486L12.7067 14.7967Z" fill="white"/>
<path d="M9.2843 12.1183V8.8233M9.2843 5.52832H9.29237" stroke="white" stroke-width="1.3833" stroke-linecap="round" stroke-linejoin="round"/>
</svg>
