<svg xmlns="http://www.w3.org/2000/svg" width="54" height="64" viewBox="0 0 54 64" fill="none">
  <path d="M16.334 44V52C16.334 52.736 15.7367 53.3333 15.0007 53.3333C14.2647 53.3333 13.6673 52.736 13.6673 52V44C13.6673 43.264 14.2647 42.6667 15.0007 42.6667C15.7367 42.6667 16.334 43.264 16.334 44ZM36.334 37.3333C35.598 37.3333 35.0007 37.9307 35.0007 38.6667V52C35.0007 52.736 35.598 53.3333 36.334 53.3333C37.07 53.3333 37.6673 52.736 37.6673 52V38.6667C37.6673 37.9307 37.07 37.3333 36.334 37.3333ZM25.6673 29.3333C24.9313 29.3333 24.334 29.9307 24.334 30.6667V52C24.334 52.736 24.9313 53.3333 25.6673 53.3333C26.4033 53.3333 27.0007 52.736 27.0007 52V30.6667C27.0007 29.9307 26.4033 29.3333 25.6673 29.3333ZM53.6673 26.6267V52C53.6673 58.616 48.2833 64 41.6673 64H12.334C5.71798 64 0.333984 58.616 0.333984 52V12C0.333984 5.384 5.71798 0 12.334 0H27.0407C31.6673 0 36.022 1.80267 39.2993 5.07733L48.59 14.3707C51.8647 17.6427 53.6673 21.9947 53.6673 26.6267ZM37.4113 6.96267C35.9393 5.49333 34.214 4.376 32.334 3.648V17.3333C32.334 19.5387 34.1287 21.3333 36.334 21.3333H50.0193C49.2913 19.4507 48.1713 17.7253 46.702 16.256L37.4113 6.96267ZM51.0007 26.6293C51.0007 25.7387 50.9207 24.8613 50.766 24.0027H36.334C32.6567 24.0027 29.6673 21.0107 29.6673 17.336V2.90133C28.8087 2.74667 27.9313 2.66667 27.0407 2.66667H12.334C7.18732 2.66667 3.00065 6.85333 3.00065 12V52C3.00065 57.1467 7.18732 61.3333 12.334 61.3333H41.6673C46.814 61.3333 51.0007 57.1467 51.0007 52V26.6267V26.6293Z" fill="#338499"/>
</svg>
