<svg xmlns="http://www.w3.org/2000/svg" width="16" height="16" viewBox="0 0 16 16" fill="none">
  <path d="M1.3335 8.0013C1.3335 5.48714 1.3335 4.23007 2.11454 3.44902C2.89559 2.66797 4.15267 2.66797 6.66683 2.66797H9.3335C11.8477 2.66797 13.1047 2.66797 13.8858 3.44902C14.6668 4.23007 14.6668 5.48714 14.6668 8.0013C14.6668 10.5155 14.6668 11.7725 13.8858 12.5536C13.1047 13.3346 11.8477 13.3346 9.3335 13.3346H6.66683C4.15267 13.3346 2.89559 13.3346 2.11454 12.5536C1.3335 11.7725 1.3335 10.5155 1.3335 8.0013Z" stroke="#828282"/>
  <path d="M4 5.33203L5.43926 6.53142C6.66369 7.55177 7.2759 8.06195 8 8.06195C8.7241 8.06195 9.33631 7.55177 10.5607 6.53142L12 5.33203" stroke="#828282" stroke-linecap="round"/>
</svg>
