<svg width="64" height="64" viewBox="0 0 64 64" fill="none" xmlns="http://www.w3.org/2000/svg">
<path d="M63.2533 25.04C63.76 27.3067 64 29.6533 64 32C64 49.6533 49.6533 64 32 64C14.3467 64 0 49.6533 0 32C0 14.3467 14.3467 0 32 0C34.3467 0 36.6933 0.266667 38.96 0.746667C39.68 0.906667 40.1333 1.62667 39.9733 2.34667C39.8133 3.06667 39.0933 3.52 38.3733 3.36C36.2933 2.90667 34.1333 2.66667 32 2.66667C15.8133 2.66667 2.66667 15.8133 2.66667 32C2.66667 48.1867 15.8133 61.3333 32 61.3333C48.1867 61.3333 61.3333 48.1867 61.3333 32C61.3333 29.84 61.0933 27.7067 60.64 25.6267C60.48 24.9067 60.9333 24.1867 61.6533 24.0267C62.3733 23.8667 63.0933 24.32 63.2533 25.04ZM35.7333 13.7067C36.4533 13.84 37.1467 13.3867 37.3067 12.6667C37.44 11.9467 36.9867 11.2533 36.2667 11.0933C34.88 10.8 33.44 10.6667 32 10.6667C20.24 10.6667 10.6667 20.24 10.6667 32C10.6667 43.76 20.24 53.3333 32 53.3333C43.76 53.3333 53.3333 43.76 53.3333 32C53.3333 30.56 53.2 29.12 52.9067 27.7333C52.7733 27.0133 52.0533 26.56 51.3333 26.6933C50.6133 26.8533 50.1333 27.5467 50.2933 28.2667C50.5333 29.4933 50.6667 30.7467 50.6667 32C50.6667 42.2933 42.2933 50.6667 32 50.6667C21.7067 50.6667 13.3333 42.2933 13.3333 32C13.3333 21.7067 21.7067 13.3333 32 13.3333C33.2533 13.3333 34.5067 13.4667 35.7333 13.7067ZM30.8533 24.08C31.5733 23.9733 32.08 23.3067 31.9733 22.56C31.8667 21.8133 31.2 21.3067 30.4533 21.44C25.2267 22.1867 21.3067 26.72 21.3067 32C21.3067 37.8933 26.08 42.6667 31.9733 42.6667C37.2533 42.6667 41.7867 38.7467 42.5333 33.52C42.64 32.8 42.1333 32.1067 41.4133 32C40.6933 31.8933 40 32.4 39.8933 33.12C39.3333 37.04 35.92 39.9733 31.9733 39.9733C27.5733 39.9733 23.9733 36.3733 23.9733 31.9733C23.9733 28.0267 26.9067 24.6133 30.8267 24.0533L30.8533 24.08ZM42.6667 19.44V11.5467C42.6667 9.76 43.36 8.08 44.6133 6.82667L51.0667 0.4C51.44 0.0266667 52.0267 -0.106667 52.5067 0.106667C53.0133 0.32 53.3333 0.8 53.3333 1.33333V10.6667H62.6667C63.2 10.6667 63.68 10.9867 63.8933 11.4933C64.1067 12 63.9733 12.56 63.6 12.9333L57.1733 19.36C55.92 20.6133 54.24 21.3067 52.4533 21.3067H44.56L32.96 32.9067C32.6933 33.1733 32.3467 33.3067 32.0267 33.3067C31.7067 33.3067 31.3333 33.1733 31.0933 32.9067C30.56 32.3733 30.56 31.5467 31.0933 31.0133L42.6933 19.4133L42.6667 19.44ZM45.3333 18.6667H52.4533C53.52 18.6667 54.5333 18.24 55.28 17.4933L59.44 13.3333H52C51.2533 13.3333 50.6667 12.7467 50.6667 12V4.56L46.5067 8.72C45.76 9.46667 45.3333 10.48 45.3333 11.5467V18.6667Z" fill="#006580"/>
</svg>
