<svg xmlns="http://www.w3.org/2000/svg" width="64" height="64" viewBox="0 0 64 64" fill="none">
  <path d="M50.6646 31.9996C50.6646 33.4715 49.47 34.6661 47.998 34.6661C46.5261 34.6661 45.3315 33.4715 45.3315 31.9996C45.3315 30.5276 46.5261 29.333 47.998 29.333C49.47 29.333 50.6646 30.5276 50.6646 31.9996ZM63.9973 33.3328V41.3325C63.9973 43.5377 62.2028 45.3323 59.9975 45.3323H59.4295C57.155 50.2547 53.0592 54.0732 47.998 55.9905V57.3318C47.998 61.0089 45.0062 63.9981 41.3317 63.9981C38.1105 63.9981 35.4199 61.7049 34.7986 58.665H26.5297C25.911 61.7049 23.2178 63.9981 19.9966 63.9981C16.3221 63.9981 13.3302 61.0089 13.3302 57.3318V55.9932C4.5013 52.66 -0.895791 43.9164 0.12283 34.3915C0.480148 31.0636 1.69343 27.9704 3.53335 25.3039C1.34944 23.8346 0.000169179 21.36 0.000169179 18.6668C0.000169179 14.2563 3.58934 10.6672 7.99982 10.6672C8.73578 10.6672 9.33309 11.2645 9.33309 12.0004C9.33309 12.7364 8.73578 13.3337 7.99982 13.3337C5.05861 13.3337 2.66672 15.7256 2.66672 18.6668C2.66672 20.5334 3.63734 22.2427 5.19461 23.2053C9.1571 18.8001 15.0048 16.0003 21.3672 16.0003H40.3477C41.2623 12.5738 43.8836 9.85921 47.8434 8.28594C49.0833 7.7953 50.4833 7.94729 51.5819 8.69392C52.6778 9.43789 53.3338 10.6752 53.3338 12.0031V20.3334C56.323 22.6613 58.6509 25.8105 59.9922 29.3303H60.0002C61.6081 29.3303 64 30.3943 64 33.3302L63.9973 33.3328ZM61.3308 33.3328C61.3308 32.2635 60.6028 32.0156 59.9868 31.9996H59.0456C58.4696 31.9996 57.9576 31.6262 57.7763 31.0796C56.611 27.5011 54.2778 24.3066 51.2139 22.08C50.8672 21.8293 50.6619 21.4294 50.6619 21.0027V12.0058C50.6619 11.5551 50.4486 11.1551 50.078 10.9018C49.702 10.6458 49.2407 10.6032 48.822 10.7658C46.3608 11.7418 43.3076 13.7177 42.7369 17.5682C42.6356 18.2375 42.0756 18.7068 41.377 18.7068L21.3646 18.6668C11.901 18.6668 3.73334 25.6985 2.77071 34.6741C1.85342 43.2604 6.91186 51.116 15.0768 53.7799C15.6261 53.9586 15.9968 54.4706 15.9968 55.0492V57.3318C15.9968 59.537 17.7914 61.3316 19.9966 61.3316C22.2019 61.3316 23.9964 59.537 23.9964 57.3318C23.9964 56.5958 24.5937 55.9985 25.3297 55.9985H35.9959C36.7319 55.9985 37.3292 56.5958 37.3292 57.3318C37.3292 59.537 39.1238 61.3316 41.329 61.3316C43.5342 61.3316 45.3288 59.537 45.3288 57.3318V55.0492C45.3288 54.4706 45.6995 53.9613 46.2488 53.7799C51.2752 52.1427 55.3097 48.3908 57.3203 43.4951C57.5256 42.9937 58.0136 42.6658 58.5522 42.6658H59.9949C60.7308 42.6658 61.3281 42.0658 61.3281 41.3325L61.3308 33.3328ZM17.3327 12.0004C18.0687 12.0004 18.666 11.4031 18.666 10.6672C18.666 6.2567 22.2552 2.66753 26.6657 2.66753C31.0761 2.66753 34.6653 6.2567 34.6653 10.6672C34.6653 11.4031 35.2626 12.0004 35.9986 12.0004C36.7345 12.0004 37.3319 11.4031 37.3319 10.6672C37.3319 4.78476 32.5481 0.000976562 26.6657 0.000976562C20.7833 0.000976562 15.9995 4.78476 15.9995 10.6672C15.9995 11.4031 16.5968 12.0004 17.3327 12.0004Z" fill="#338499"/>
</svg>
