<svg xmlns="http://www.w3.org/2000/svg" width="64" height="64" viewBox="0 0 64 64" fill="none">
  <path d="M45.501 8.68664L49.9569 0.68684C50.3115 0.0415225 51.1275 -0.187805 51.7702 0.172186C52.4128 0.529511 52.6448 1.34016 52.2848 1.98547L47.8289 9.98528C47.5863 10.4226 47.1303 10.6706 46.6636 10.6706C46.4423 10.6706 46.221 10.6146 46.0157 10.5026C45.373 10.1453 45.141 9.33196 45.501 8.68664ZM63.8872 14.0945C63.5886 13.4199 62.8046 13.1185 62.1299 13.4092L54.1301 16.9318C53.4555 17.2278 53.1488 18.0171 53.4448 18.6891C53.6661 19.1904 54.1541 19.4864 54.6661 19.4864C54.8448 19.4864 55.0288 19.449 55.2021 19.3744L63.2019 15.8518C63.8765 15.5558 64.1832 14.7665 63.8872 14.0945ZM16.1684 9.98261C16.411 10.4199 16.867 10.6679 17.3337 10.6679C17.555 10.6679 17.7764 10.6119 17.9817 10.4999C18.6243 10.1426 18.8563 9.33196 18.4963 8.68664L14.0431 0.68684C13.6858 0.0415225 12.8725 -0.185139 12.2298 0.172186C11.5872 0.529511 11.3552 1.34016 11.7152 1.98547L16.1711 9.98528L16.1684 9.98261ZM9.86988 16.9318L1.87007 13.4092C1.20076 13.1212 0.411443 13.4172 0.112784 14.0945C-0.183209 14.7665 0.123451 15.5558 0.798101 15.8518L8.7979 19.3744C8.97123 19.449 9.15523 19.4864 9.33389 19.4864C9.84588 19.4864 10.3339 19.1904 10.5552 18.6891C10.8512 18.0171 10.5445 17.2278 9.86988 16.9318ZM53.3328 31.9981C53.3328 38.8859 49.9756 45.3844 44.3517 49.3816C43.2957 50.1336 42.6664 51.3443 42.6664 52.6216V56.0001C42.6664 60.4107 39.0772 64 34.6666 64H29.3334C24.8455 64 21.3336 60.328 21.3336 55.6375V52.6189C21.3336 51.3443 20.6963 50.1283 19.627 49.3683C13.0778 44.6964 9.73388 36.8193 10.8992 28.8061C12.2672 19.417 20.1176 11.8466 29.5734 10.8013C35.7252 10.1186 41.6451 12.0012 46.2263 16.0998C50.7409 20.145 53.3328 25.9369 53.3328 31.9981ZM39.9998 55.9975V53.3309H24.0002V55.6348C24.0002 58.8827 26.2908 61.3307 29.3334 61.3307H34.6666C37.6079 61.3307 39.9998 58.9387 39.9998 55.9975ZM50.6662 31.9981C50.6662 26.6969 48.3996 21.625 44.4477 18.0864C40.9784 14.9825 36.6319 13.3319 32.0267 13.3319C31.312 13.3319 30.592 13.3719 29.864 13.4519C21.5976 14.3638 14.7311 20.9823 13.5391 29.1901C12.5178 36.2086 15.4431 43.1098 21.1736 47.195C22.3842 48.059 23.2295 49.2936 23.6615 50.6643H30.6667V37.1953C27.6268 36.5766 25.3335 33.8834 25.3335 30.6648C25.3335 29.9288 25.9308 29.3315 26.6668 29.3315C27.4028 29.3315 28.0001 29.9288 28.0001 30.6648C28.0001 32.87 29.7947 34.6647 32 34.6647C34.2053 34.6647 35.9999 32.87 35.9999 30.6648C35.9999 29.9288 36.5972 29.3315 37.3332 29.3315C38.0692 29.3315 38.6665 29.9288 38.6665 30.6648C38.6665 33.886 36.3732 36.5766 33.3333 37.1953V50.6643H40.3358C40.7651 49.2963 41.6024 48.0643 42.8051 47.2084C47.7303 43.7098 50.6662 38.0246 50.6662 31.9981Z" fill="#338499"/>
</svg>
