<svg xmlns="http://www.w3.org/2000/svg" width="64" height="64" viewBox="0 0 64 64" fill="none">
  <path d="M45.6744 34.3587C42.8792 31.5749 38.5211 31.2976 35.3925 33.5001L21.3365 19.4474V10.6665C21.3365 8.44263 20.1389 6.37073 18.2106 5.25878L10.2597 0.672332C8.29668 -0.463615 5.80821 -0.132964 4.20524 1.46963L1.46872 4.2055C-0.134251 5.80809 -0.462313 8.2933 0.668568 10.2585L5.25344 18.2075C6.36565 20.1354 8.43804 21.3327 10.6651 21.3327H19.4481L33.4961 35.3774C32.5253 36.7266 31.9838 38.3266 31.9838 40.0198C31.9838 42.1584 32.8187 44.1663 34.3363 45.6755L50.3953 61.6561C51.8996 63.1547 53.9507 63.9973 56.0684 63.9973C58.6769 63.9973 60.8453 62.8027 62.2882 61.0481C64.8567 57.915 64.4967 53.0939 61.4641 50.07L45.6744 34.3587ZM7.56321 16.8742L2.97834 8.92527C2.44757 8.00532 2.60227 6.84271 3.35174 6.09341L6.08826 3.35754C6.83774 2.60824 8.00863 2.45625 8.92346 2.98156L16.8716 7.56801C17.9785 8.20531 18.664 9.39725 18.664 10.6692V18.6688H10.6625C9.38755 18.6688 8.20066 17.9808 7.56054 16.8769L7.56321 16.8742ZM60.2239 59.3549C59.245 60.5468 57.8634 61.2481 56.3351 61.3228C54.8148 61.3921 53.3452 60.8295 52.2757 59.7655L36.2166 43.785C35.2084 42.7797 34.651 41.4411 34.651 40.0198C34.651 38.5959 35.2058 37.2573 36.2166 36.2467C37.2622 35.2067 38.6331 34.6867 40.0014 34.6867C41.3696 34.6867 42.7432 35.2067 43.7887 36.2467L59.5757 51.9579C61.6455 54.0191 61.9282 57.2697 60.2185 59.3522L60.2239 59.3549ZM24.7451 14.389C26.8389 7.18402 32.9467 1.66695 40.3027 0.331014C43.2233 -0.196961 46.1358 -0.0929655 48.9551 0.640333C50.2833 0.986983 51.2915 1.9816 51.6542 3.30421C52.0116 4.61348 51.6542 5.97341 50.6994 6.93604L41.2496 16.4636C39.5266 18.1862 39.5266 20.986 41.2469 22.706C42.9672 24.4259 45.7651 24.4232 47.4854 22.706L56.9726 13.1411C57.9248 12.1758 59.2743 11.8105 60.5893 12.1571C61.9175 12.5091 62.923 13.5144 63.2831 14.8477C64.0406 17.6715 64.1659 20.5861 63.6538 23.5193C62.7577 28.6683 59.7384 33.3695 55.3669 36.42C55.1349 36.5826 54.8682 36.66 54.6041 36.66C54.1827 36.66 53.7693 36.4626 53.5079 36.0893C53.0865 35.484 53.2332 34.6547 53.8386 34.2334C57.6314 31.5882 60.2505 27.5164 61.024 23.0633C61.4694 20.5167 61.3601 17.9862 60.7039 15.5436C60.5492 14.9677 60.0932 14.789 59.9038 14.7383C59.7198 14.6823 59.2557 14.621 58.8636 15.0183L49.3711 24.5885C46.6106 27.3537 42.1218 27.3564 39.3586 24.5939C38.0223 23.2579 37.2862 21.482 37.2862 19.5888C37.2862 17.6955 38.0223 15.9223 39.3586 14.5863L48.8057 5.06146C49.2031 4.65881 49.1311 4.19217 49.0804 4.00817C49.0297 3.82152 48.8484 3.3682 48.2829 3.21888C45.8371 2.58691 43.3166 2.49625 40.7802 2.95489C34.411 4.11217 29.122 8.89061 27.3083 15.1303C27.1029 15.8369 26.3721 16.2449 25.6546 16.0396C24.9478 15.8343 24.5424 15.0956 24.7478 14.3864L24.7451 14.389ZM28.2898 45.1956C28.8099 45.7182 28.8099 46.5635 28.2898 47.0835L13.6684 61.6588C12.1641 63.1574 10.113 64 7.99529 64C5.33612 64 3.21838 62.8081 1.77811 61.0535C-0.793042 57.9203 -0.432974 53.0992 2.5996 50.0753L21.2085 31.5242C21.7312 31.0096 22.5741 31.0069 23.0942 31.5242C23.6142 32.0468 23.6142 32.8921 23.0942 33.4121L4.48529 51.9632C2.41557 54.0245 2.13285 57.275 3.8425 59.3576C4.82135 60.5495 6.20295 61.2481 7.73124 61.3228C9.27553 61.4295 10.7211 60.8295 11.788 59.7655L26.4094 45.1902C26.9295 44.6756 27.775 44.6729 28.2951 45.1902L28.2898 45.1956Z" fill="#338499"/>
</svg>
