<svg width="24" height="24" viewBox="0 0 24 24" fill="none" xmlns="http://www.w3.org/2000/svg">
<path d="M6.46997 5.001C6.46971 5.53143 6.25874 6.04004 5.88348 6.41492C5.50822 6.78981 4.9994 7.00027 4.46897 7C3.93854 6.99974 3.42994 6.78877 3.05505 6.41351C2.68016 6.03825 2.46971 5.52943 2.46997 4.999C2.47024 4.46857 2.6812 3.95996 3.05646 3.58508C3.43172 3.21019 3.94054 2.99974 4.47097 3C5.0014 3.00027 5.51001 3.21123 5.88489 3.58649C6.25978 3.96175 6.47024 4.47057 6.46997 5.001ZM6.52997 8.781C6.52997 8.61532 6.39566 8.481 6.22997 8.481H2.82997C2.66429 8.481 2.52997 8.61531 2.52997 8.781V20.701C2.52997 20.8667 2.66429 21.001 2.82997 21.001H6.22997C6.39566 21.001 6.52997 20.8667 6.52997 20.701V8.781ZM12.8427 8.78814C12.8467 8.61971 12.7112 8.481 12.5427 8.481H9.16997C9.00429 8.481 8.86997 8.61531 8.86997 8.781V20.701C8.86997 20.8667 9.00429 21.001 9.16997 21.001H12.51C12.6757 21.001 12.81 20.8667 12.81 20.701V14.431C12.81 10.771 17.58 10.431 17.58 14.431V20.701C17.58 20.8667 17.7143 21.001 17.88 21.001H21.23C21.3957 21.001 21.53 20.8667 21.53 20.701V13.071C21.53 6.901 14.47 7.131 12.81 10.161L12.8427 8.78814Z" fill="#E0E0E0"/>
</svg>
