<svg width="19" height="20" viewBox="0 0 19 20" fill="none" xmlns="http://www.w3.org/2000/svg">
<path d="M5.83018 14.6115C6.46683 14.6115 6.98293 15.1276 6.98293 15.7642C6.98293 16.4009 6.46683 16.917 5.83018 16.917C5.19353 16.917 4.67743 16.4009 4.67743 15.7642C4.67743 15.1276 5.19353 14.6115 5.83018 14.6115Z" stroke="white" stroke-width="1.15275"/>
<path d="M12.7467 14.6115C13.3833 14.6115 13.8994 15.1276 13.8994 15.7643C13.8994 16.4009 13.3833 16.917 12.7467 16.917C12.11 16.917 11.5939 16.4009 11.5939 15.7643C11.5939 15.1276 12.11 14.6115 12.7467 14.6115Z" stroke="white" stroke-width="1.15275"/>
<path d="M1.80413 3.15456L1.9953 2.61081H1.9953L1.80413 3.15456ZM1.79456 2.54024C1.49426 2.43465 1.16523 2.59251 1.05964 2.89281C0.954064 3.19312 1.11192 3.52215 1.41222 3.62773L1.60339 3.08398L1.79456 2.54024ZM3.59061 4.1007L4.06649 3.77551L4.06649 3.77551L3.59061 4.1007ZM4.59111 11.988L4.17284 12.3845V12.3845L4.59111 11.988ZM15.9419 8.37339L16.5064 8.48974L16.5071 8.48621L15.9419 8.37339ZM15.5579 10.2368L16.1224 10.3531V10.3531L15.5579 10.2368ZM16.0009 5.9252L15.5441 6.27664V6.27664L16.0009 5.9252ZM14.7706 12.3447L14.4065 11.8979L14.7706 12.3447ZM3.87668 8.27905H4.45306V6.18747H3.87668H3.30031V8.27905H3.87668ZM1.80413 3.15456L1.9953 2.61081L1.79456 2.54024L1.60339 3.08398L1.41222 3.62773L1.61296 3.69831L1.80413 3.15456ZM8.47186 12.6903V13.2666H12.5471V12.6903V12.1139H8.47186V12.6903ZM3.87668 6.18747H4.45306C4.45306 5.64402 4.45384 5.19052 4.41395 4.822C4.37266 4.44053 4.28319 4.09262 4.06649 3.77551L3.59061 4.1007L3.11474 4.42589C3.1841 4.5274 3.23767 4.66682 3.26789 4.94606C3.29952 5.23824 3.30031 5.61882 3.30031 6.18747H3.87668ZM1.80413 3.15456L1.61296 3.69831C2.12602 3.87869 2.4632 3.99823 2.71131 4.11997C2.94434 4.23431 3.04706 4.32686 3.11474 4.42589L3.59061 4.1007L4.06649 3.77551C3.8481 3.45591 3.55772 3.25123 3.2191 3.08508C2.89555 2.92632 2.48252 2.78211 1.9953 2.61081L1.80413 3.15456ZM3.87668 8.27905H3.30031C3.30031 9.39532 3.31078 10.2002 3.41611 10.8152C3.52856 11.4717 3.75306 11.9418 4.17284 12.3845L4.59111 11.988L5.00938 11.5914C4.76333 11.3319 4.63062 11.0778 4.55231 10.6206C4.46688 10.1218 4.45306 9.42338 4.45306 8.27905H3.87668ZM8.47186 12.6903V12.1139C7.38306 12.1139 6.62757 12.1125 6.05837 12.0318C5.50903 11.9539 5.21883 11.8123 5.00938 11.5914L4.59111 11.988L4.17284 12.3845C4.62922 12.8659 5.20776 13.0755 5.89652 13.1731C6.56541 13.268 7.41738 13.2666 8.47186 13.2666V12.6903ZM3.87668 5.48171V6.05809H13.1992V5.48171V4.90533H3.87668V5.48171ZM15.9419 8.37339L15.3774 8.25704L14.9933 10.1204L15.5579 10.2368L16.1224 10.3531L16.5064 8.48974L15.9419 8.37339ZM13.1992 5.48171V6.05809C13.8573 6.05809 14.4365 6.05886 14.8936 6.10995C15.1208 6.13534 15.2908 6.17062 15.4102 6.21259C15.5343 6.25618 15.554 6.28961 15.5441 6.27664L16.0009 5.9252L16.4577 5.57376C16.2772 5.33904 16.0233 5.20617 15.7924 5.12502C15.5568 5.04226 15.2905 4.99438 15.0217 4.96434C14.487 4.90456 13.8359 4.90533 13.1992 4.90533V5.48171ZM15.9419 8.37339L16.5071 8.48621C16.6372 7.8346 16.7476 7.28788 16.7747 6.84993C16.8025 6.39944 16.7512 5.95523 16.4577 5.57376L16.0009 5.9252L15.5441 6.27664C15.5918 6.33865 15.6444 6.45031 15.6241 6.77892C15.603 7.12008 15.5134 7.57571 15.3767 8.26057L15.9419 8.37339ZM12.5471 12.6903V13.2666C13.1325 13.2666 13.6237 13.2676 14.0198 13.2192C14.4315 13.1688 14.8069 13.0586 15.1347 12.7915L14.7706 12.3447L14.4065 11.8979C14.3103 11.9763 14.1738 12.039 13.8797 12.075C13.5699 12.1129 13.1614 12.1139 12.5471 12.1139V12.6903ZM15.5579 10.2368L14.9933 10.1204C14.8693 10.7221 14.7859 11.1219 14.6862 11.4177C14.5916 11.6985 14.5027 11.8195 14.4065 11.8979L14.7706 12.3447L15.1347 12.7915C15.4625 12.5244 15.6461 12.1789 15.7786 11.7859C15.906 11.4078 16.0042 10.9265 16.1224 10.3531L15.5579 10.2368Z" fill="white"/>
</svg>
