<svg width="19" height="19" viewBox="0 0 19 19" fill="none" xmlns="http://www.w3.org/2000/svg">
<path d="M18.3879 8.05212L16.5493 4.37339C16.4815 4.23799 16.3878 4.11726 16.2734 4.01809C16.159 3.91892 16.0262 3.84326 15.8826 3.79543C15.7389 3.74759 15.5873 3.72852 15.4362 3.7393C15.2852 3.75008 15.1378 3.7905 15.0024 3.85826L13.2106 4.7538L9.43608 3.75523C9.33922 3.73003 9.23753 3.73003 9.14068 3.75523L5.36614 4.7538L3.57433 3.85826C3.43894 3.7905 3.29153 3.75008 3.14052 3.7393C2.9895 3.72852 2.83785 3.74759 2.69421 3.79543C2.55056 3.84326 2.41775 3.91892 2.30335 4.01809C2.18896 4.11726 2.09521 4.23799 2.02748 4.37339L0.188841 8.05139C0.121085 8.18678 0.0806627 8.33419 0.0698819 8.48521C0.0591012 8.63622 0.0781733 8.78788 0.126009 8.93152C0.173845 9.07516 0.249508 9.20797 0.348676 9.32237C0.447845 9.43677 0.568577 9.53051 0.703977 9.59824L2.64925 10.5716L6.64714 13.4268C6.70608 13.4687 6.77228 13.4992 6.84238 13.5169L11.4534 14.6696C11.55 14.6939 11.6511 14.6926 11.7471 14.6661C11.8431 14.6396 11.9305 14.5887 12.0009 14.5183L15.9686 10.55L17.8721 9.59824C18.1453 9.46145 18.3531 9.22174 18.4497 8.93182C18.5463 8.64189 18.5238 8.32547 18.3872 8.05212H18.3879ZM14.4333 10.4563L11.9541 8.47071C11.8431 8.38176 11.703 8.33705 11.561 8.34516C11.4189 8.35327 11.2849 8.41365 11.1847 8.51466C9.9015 9.80718 8.47137 9.64363 7.55925 9.06726L10.6746 6.04128H12.9664L14.9268 9.96136L14.4333 10.4563ZM3.05847 4.88853L4.53328 5.62485L2.69103 9.30285L1.21911 8.56725L3.05847 4.88853ZM11.4159 13.4715L7.22928 12.4254L3.68456 9.89364L5.70188 5.859L9.28838 4.9087L9.99444 5.09531L6.75232 8.24232L6.74656 8.2488C6.62452 8.37085 6.53144 8.51874 6.47419 8.68156C6.41694 8.84438 6.39698 9.01798 6.41579 9.18955C6.4346 9.36112 6.49169 9.52627 6.58286 9.67283C6.67403 9.81938 6.79694 9.94359 6.94253 10.0363C8.42382 10.9823 10.2113 10.8288 11.6191 9.67605L13.6112 11.2762L11.4159 13.4715ZM15.8828 9.30213L14.0442 5.62773L15.5183 4.88853L17.3576 8.56725L15.8828 9.30213ZM9.56072 15.9787C9.52958 16.1033 9.45773 16.2139 9.35658 16.293C9.25543 16.3721 9.13076 16.4152 9.00235 16.4153C8.95499 16.4154 8.9078 16.4096 8.86186 16.398L5.85966 15.6473C5.78945 15.63 5.72318 15.5994 5.66441 15.5573L3.76598 14.2013C3.64925 14.1097 3.57237 13.9765 3.55135 13.8296C3.53033 13.6827 3.56679 13.5333 3.65314 13.4126C3.73949 13.2919 3.86908 13.2092 4.01491 13.1816C4.16074 13.1541 4.31157 13.1838 4.43601 13.2647L6.24511 14.5572L9.14429 15.2806C9.29255 15.3177 9.42002 15.4121 9.49865 15.5432C9.57728 15.6743 9.60065 15.8312 9.5636 15.9794L9.56072 15.9787Z" fill="white"/>
</svg>
