<svg xmlns="http://www.w3.org/2000/svg" width="18" height="18" viewBox="0 0 18 18" fill="none">
  <path fill-rule="evenodd" clip-rule="evenodd" d="M6.89295 1.29956C6.75484 1.42351 6.61026 1.54005 6.45981 1.64869C6.19905 1.82369 5.90592 1.94445 5.59791 2.0057C5.46404 2.03195 5.32403 2.04332 5.0449 2.0652C4.34401 2.1212 3.99312 2.1492 3.70087 2.25245C3.3666 2.37027 3.063 2.56152 2.81239 2.81214C2.56177 3.06275 2.37053 3.36635 2.25271 3.70062C2.14945 3.99287 2.12145 4.34376 2.06545 5.04465C2.0554 5.22991 2.03554 5.41451 2.00595 5.59766C1.9447 5.90567 1.82395 6.1988 1.64894 6.45956C1.57281 6.57331 1.48181 6.68007 1.29981 6.8927C0.843921 7.42821 0.61554 7.69597 0.481662 7.97597C0.172779 8.62349 0.172779 9.37601 0.481662 10.0235C0.61554 10.3035 0.843921 10.5713 1.29981 11.1068C1.48181 11.3194 1.57281 11.4262 1.64894 11.5399C1.82395 11.8007 1.9447 12.0938 2.00595 12.4018C2.0322 12.5357 2.04358 12.6757 2.06545 12.9548C2.12145 13.6557 2.14945 14.0066 2.25271 14.2989C2.37053 14.6331 2.56177 14.9367 2.81239 15.1874C3.063 15.438 3.3666 15.6292 3.70087 15.747C3.99312 15.8503 4.34401 15.8783 5.0449 15.9343C5.32403 15.9562 5.46404 15.9675 5.59791 15.9938C5.90592 16.055 6.19905 16.1767 6.45981 16.3508C6.57356 16.4269 6.68032 16.5179 6.89295 16.6999C7.42846 17.1558 7.69622 17.3842 7.97622 17.5181C8.62374 17.827 9.37626 17.827 10.0238 17.5181C10.3038 17.3842 10.5715 17.1558 11.1071 16.6999C11.3197 16.5179 11.4264 16.4269 11.5402 16.3508C11.8009 16.1758 12.0941 16.055 12.4021 15.9938C12.536 15.9675 12.676 15.9562 12.9551 15.9343C13.656 15.8783 14.0069 15.8503 14.2991 15.747C14.6334 15.6292 14.937 15.438 15.1876 15.1874C15.4382 14.9367 15.6295 14.6331 15.7473 14.2989C15.8505 14.0066 15.8785 13.6557 15.9345 12.9548C15.9564 12.6757 15.9678 12.5357 15.994 12.4018C16.0553 12.0938 16.1769 11.8007 16.3511 11.5399C16.4272 11.4262 16.5182 11.3194 16.7002 11.1068C17.1561 10.5713 17.3845 10.3035 17.5183 10.0235C17.8272 9.37601 17.8272 8.62349 17.5183 7.97597C17.3845 7.69597 17.1561 7.42821 16.7002 6.8927C16.5762 6.75459 16.4597 6.61001 16.3511 6.45956C16.176 6.19885 16.0546 5.90584 15.994 5.59766C15.9645 5.41451 15.9446 5.22991 15.9345 5.04465C15.8785 4.34376 15.8505 3.99287 15.7473 3.70062C15.6295 3.36635 15.4382 3.06275 15.1876 2.81214C14.937 2.56152 14.6334 2.37027 14.2991 2.25245C14.0069 2.1492 13.656 2.1212 12.9551 2.0652C12.7698 2.05515 12.5852 2.03529 12.4021 2.0057C12.0939 1.94517 11.8009 1.8238 11.5402 1.64869C11.3897 1.54005 11.2452 1.42351 11.1071 1.29956C10.5715 0.843669 10.3038 0.615288 10.0238 0.48141C9.70416 0.328431 9.35433 0.249023 9 0.249023C8.64566 0.249023 8.29583 0.328431 7.97622 0.48141C7.69622 0.615288 7.42846 0.843669 6.89295 1.29956ZM12.8265 7.12983C12.9501 6.99447 13.0169 6.81663 13.0127 6.63333C13.0086 6.45003 12.9339 6.27539 12.8043 6.14574C12.6746 6.01609 12.5 5.94143 12.3167 5.9373C12.1334 5.93317 11.9556 5.99988 11.8202 6.12355L7.57634 10.3674L6.1798 8.97175C6.04445 8.84808 5.86661 8.78137 5.68331 8.7855C5.50001 8.78963 5.32536 8.86429 5.19572 8.99394C5.06607 9.12358 4.99141 9.29823 4.98728 9.48153C4.98315 9.66483 5.04986 9.84266 5.17353 9.97802L7.07233 11.8768C7.20586 12.0101 7.38681 12.0849 7.57546 12.0849C7.76412 12.0849 7.94507 12.0101 8.0786 11.8768L12.8265 7.12983Z" fill="url(#paint0_linear_6220_14858)"/>
  <defs>
    <linearGradient id="paint0_linear_6220_14858" x1="3.72603" y1="2.16691" x2="25.0627" y2="29.496" gradientUnits="userSpaceOnUse">
      <stop stop-color="#006580"/>
      <stop offset="0.4" stop-color="#107281"/>
      <stop offset="1" stop-color="#4CA485"/>
    </linearGradient>
  </defs>
</svg>
