<svg xmlns="http://www.w3.org/2000/svg" width="12" height="15" viewBox="0 0 12 15" fill="none">
  <mask id="path-1-inside-1_7816_5596" fill="white">
    <path fill-rule="evenodd" clip-rule="evenodd" d="M0 5.92886C0 2.66285 2.60334 0 5.83333 0C9.06333 0 11.6667 2.66285 11.6667 5.92886C11.6667 7.5056 11.2173 9.19861 10.423 10.6612C9.62959 12.1221 8.47042 13.3915 7.02034 14.0693C6.26705 14.4214 5.39962 14.4214 4.64633 14.0693C3.19625 13.3915 2.03708 12.1221 1.2437 10.6612C0.449352 9.19861 0 7.5056 0 5.92886ZM5.83333 1C3.17229 1 1 3.19832 1 5.92886C1 7.32691 1.40176 8.85694 2.12247 10.184C2.84416 11.5128 3.86401 12.5998 5.06976 13.1633C5.5547 13.39 6.11197 13.39 6.5969 13.1633C7.80265 12.5998 8.82251 11.5128 9.5442 10.184C10.2649 8.85694 10.6667 7.32691 10.6667 5.92886C10.6667 3.19832 8.49438 1 5.83333 1ZM5.83333 4.33333C5.00491 4.33333 4.33333 5.00491 4.33333 5.83333C4.33333 6.66176 5.00491 7.33333 5.83333 7.33333C6.66176 7.33333 7.33333 6.66176 7.33333 5.83333C7.33333 5.00491 6.66176 4.33333 5.83333 4.33333ZM3.33333 5.83333C3.33333 4.45262 4.45262 3.33333 5.83333 3.33333C7.21405 3.33333 8.33333 4.45262 8.33333 5.83333C8.33333 7.21404 7.21405 8.33333 5.83333 8.33333C4.45262 8.33333 3.33333 7.21404 3.33333 5.83333Z"/>
  </mask>
  <path d="M10.423 10.6612L9.36844 10.0885L10.423 10.6612ZM7.02034 14.0693L6.51222 12.9821L6.51222 12.9821L7.02034 14.0693ZM4.64633 14.0693L5.15445 12.9821L5.15445 12.9821L4.64633 14.0693ZM1.2437 10.6612L2.29822 10.0885L1.2437 10.6612ZM2.12247 10.184L1.06795 10.7567H1.06795L2.12247 10.184ZM5.06976 13.1633L4.56164 14.2504H4.56164L5.06976 13.1633ZM6.5969 13.1633L6.08878 12.0762L6.5969 13.1633ZM9.5442 10.184L10.5987 10.7567L9.5442 10.184ZM5.83333 0V-1.2C1.92009 -1.2 -1.2 2.0208 -1.2 5.92886H0H1.2C1.2 3.3049 3.28659 1.2 5.83333 1.2V0ZM11.6667 5.92886H12.8667C12.8667 2.0208 9.74657 -1.2 5.83333 -1.2V0V1.2C8.38008 1.2 10.4667 3.3049 10.4667 5.92886H11.6667ZM10.423 10.6612L11.4775 11.2339C12.3602 9.60862 12.8667 7.72003 12.8667 5.92886H11.6667H10.4667C10.4667 7.29116 10.0744 8.78859 9.36844 10.0885L10.423 10.6612ZM7.02034 14.0693L7.52847 15.1564C9.27185 14.3415 10.5982 12.853 11.4775 11.2339L10.423 10.6612L9.36844 10.0885C8.66102 11.3911 7.66899 12.4415 6.51222 12.9821L7.02034 14.0693ZM4.64633 14.0693L4.1382 15.1564C5.21353 15.659 6.45314 15.659 7.52847 15.1564L7.02034 14.0693L6.51222 12.9821C6.08095 13.1837 5.58572 13.1837 5.15445 12.9821L4.64633 14.0693ZM1.2437 10.6612L0.189185 11.2339C1.06851 12.853 2.39482 14.3415 4.1382 15.1564L4.64633 14.0693L5.15445 12.9821C3.99768 12.4415 3.00565 11.3911 2.29822 10.0885L1.2437 10.6612ZM0 5.92886H-1.2C-1.2 7.72003 -0.693523 9.60862 0.189185 11.2339L1.2437 10.6612L2.29822 10.0885C1.59223 8.78859 1.2 7.29116 1.2 5.92886H0ZM1 5.92886H2.2C2.2 3.84152 3.85441 2.2 5.83333 2.2V1V-0.2C2.49017 -0.2 -0.2 2.55512 -0.2 5.92886H1ZM2.12247 10.184L3.17699 9.61128C2.54465 8.44696 2.2 7.11251 2.2 5.92886H1H-0.2C-0.2 7.54132 0.258863 9.26692 1.06795 10.7567L2.12247 10.184ZM5.06976 13.1633L5.57789 12.0762C4.66521 11.6496 3.81257 10.7816 3.17699 9.61128L2.12247 10.184L1.06795 10.7567C1.87575 12.2441 3.06282 13.5499 4.56164 14.2504L5.06976 13.1633ZM6.5969 13.1633L6.08878 12.0762C5.92587 12.1524 5.7408 12.1524 5.57789 12.0762L5.06976 13.1633L4.56164 14.2504C5.36861 14.6276 6.29806 14.6276 7.10503 14.2504L6.5969 13.1633ZM9.5442 10.184L8.48968 9.61128C7.8541 10.7816 7.00146 11.6496 6.08878 12.0762L6.5969 13.1633L7.10503 14.2504C8.60385 13.5499 9.79092 12.2441 10.5987 10.7567L9.5442 10.184ZM10.6667 5.92886H9.46667C9.46667 7.11251 9.12202 8.44696 8.48968 9.61128L9.5442 10.184L10.5987 10.7567C11.4078 9.26692 11.8667 7.54132 11.8667 5.92886H10.6667ZM5.83333 1V2.2C7.81226 2.2 9.46667 3.84152 9.46667 5.92886H10.6667H11.8667C11.8667 2.55512 9.1765 -0.2 5.83333 -0.2V1ZM4.33333 5.83333H5.53333C5.53333 5.66765 5.66765 5.53333 5.83333 5.53333V4.33333V3.13333C4.34216 3.13333 3.13333 4.34216 3.13333 5.83333H4.33333ZM5.83333 7.33333V6.13333C5.66765 6.13333 5.53333 5.99902 5.53333 5.83333H4.33333H3.13333C3.13333 7.3245 4.34216 8.53333 5.83333 8.53333V7.33333ZM7.33333 5.83333H6.13333C6.13333 5.99902 5.99902 6.13333 5.83333 6.13333V7.33333V8.53333C7.3245 8.53333 8.53333 7.3245 8.53333 5.83333H7.33333ZM5.83333 4.33333V5.53333C5.99902 5.53333 6.13333 5.66765 6.13333 5.83333H7.33333H8.53333C8.53333 4.34216 7.3245 3.13333 5.83333 3.13333V4.33333ZM5.83333 3.33333V2.13333C3.78988 2.13333 2.13333 3.78988 2.13333 5.83333H3.33333H4.53333C4.53333 5.11536 5.11536 4.53333 5.83333 4.53333V3.33333ZM8.33333 5.83333H9.53333C9.53333 3.78988 7.87679 2.13333 5.83333 2.13333V3.33333V4.53333C6.5513 4.53333 7.13333 5.11536 7.13333 5.83333H8.33333ZM5.83333 8.33333V9.53333C7.87679 9.53333 9.53333 7.87679 9.53333 5.83333H8.33333H7.13333C7.13333 6.5513 6.5513 7.13333 5.83333 7.13333V8.33333ZM3.33333 5.83333H2.13333C2.13333 7.87679 3.78988 9.53333 5.83333 9.53333V8.33333V7.13333C5.11536 7.13333 4.53333 6.5513 4.53333 5.83333H3.33333Z" fill="#828282" mask="url(#path-1-inside-1_7816_5596)"/>
</svg>
