<svg xmlns="http://www.w3.org/2000/svg" width="20" height="20" viewBox="0 0 20 20" fill="none">
  <path d="M6.25 15C6.94036 15 7.5 15.5596 7.5 16.25C7.5 16.9404 6.94036 17.5 6.25 17.5C5.55964 17.5 5 16.9404 5 16.25C5 15.5596 5.55964 15 6.25 15Z" fill="currentColor" stroke="currentColor"/>
  <path d="M13.75 15.0001C14.4404 15.0001 15 15.5597 15 16.2501C15 16.9404 14.4404 17.5001 13.75 17.5001C13.0596 17.5001 12.5 16.9404 12.5 16.2501C12.5 15.5597 13.0596 15.0001 13.75 15.0001Z" stroke="currentColor"/>
  <path d="M1.88433 2.57653L2.05017 2.10483L2.05017 2.10483L1.88433 2.57653ZM1.8325 2.0283C1.57198 1.93671 1.28655 2.07365 1.19496 2.33416C1.10337 2.59467 1.24031 2.88011 1.50082 2.9717L1.66666 2.5L1.8325 2.0283ZM3.82152 3.60248L4.23434 3.32038L4.23434 3.32038L3.82152 3.60248ZM4.90642 12.1551L4.54358 12.4992H4.54358L4.90642 12.1551ZM17.2148 8.23563L17.7045 8.33656L17.7051 8.3335L17.2148 8.23563ZM16.7983 10.2562L17.288 10.3572L17.288 10.3572L16.7983 10.2562ZM17.2787 5.5809L16.8824 5.88577V5.88577L17.2787 5.5809ZM15.9447 12.542L15.6288 12.1544L15.9447 12.542ZM4.13172 8.13333H4.63172V5.8653H4.13172H3.63172V8.13333H4.13172ZM1.88433 2.57653L2.05017 2.10483L1.8325 2.0283L1.66666 2.5L1.50082 2.9717L1.71849 3.04823L1.88433 2.57653ZM9.11455 12.9167V13.4167H13.5336V12.9167V12.4167H9.11455V12.9167ZM4.13172 5.8653H4.63172C4.63172 5.27327 4.6324 4.78942 4.59004 4.39809C4.54647 3.99553 4.45335 3.64087 4.23434 3.32038L3.82152 3.60248L3.4087 3.88459C3.4999 4.01804 3.56188 4.19183 3.59585 4.50571C3.63104 4.83082 3.63172 5.25141 3.63172 5.8653H4.13172ZM1.88433 2.57653L1.71849 3.04823C2.27203 3.24284 2.64588 3.37514 2.9231 3.51116C3.18724 3.64077 3.31898 3.75328 3.4087 3.88459L3.82152 3.60248L4.23434 3.32038C4.01387 2.99775 3.71934 2.78796 3.3636 2.61341C3.02094 2.44527 2.58129 2.29157 2.05017 2.10483L1.88433 2.57653ZM4.13172 8.13333H3.63172C3.63172 9.34681 3.64344 10.2081 3.7555 10.8623C3.87373 11.5526 4.10722 12.0389 4.54358 12.4992L4.90642 12.1551L5.26926 11.8111C4.98362 11.5099 4.82976 11.2109 4.74114 10.6935C4.64635 10.14 4.63172 9.37116 4.63172 8.13333H4.13172ZM9.11455 12.9167V12.4167C7.93762 12.4167 7.10794 12.4155 6.47991 12.3264C5.86911 12.2398 5.52316 12.0789 5.26926 11.8111L4.90642 12.1551L4.54358 12.4992C5.01168 12.9929 5.60776 13.2128 6.3395 13.3165C7.05401 13.4178 7.96739 13.4167 9.11455 13.4167V12.9167ZM4.13172 5.1V5.6H14.2407V5.1V4.6H4.13172V5.1ZM17.2148 8.23563L16.7251 8.13469L16.3086 10.1553L16.7983 10.2562L17.288 10.3572L17.7045 8.33656L17.2148 8.23563ZM14.2407 5.1V5.6C14.952 5.6 15.5879 5.60067 16.092 5.65702C16.3428 5.68506 16.5376 5.72467 16.6797 5.77461C16.8258 5.82594 16.8726 5.87298 16.8824 5.88577L17.2787 5.5809L17.675 5.27603C17.4999 5.04837 17.25 4.91507 17.0112 4.83115C16.7684 4.74583 16.49 4.69528 16.2031 4.66321C15.6317 4.59933 14.9335 4.6 14.2407 4.6V5.1ZM17.2148 8.23563L17.7051 8.3335C17.8469 7.62332 17.9644 7.04034 17.993 6.57595C18.0224 6.10067 17.9666 5.65505 17.675 5.27603L17.2787 5.5809L16.8824 5.88577C16.9608 5.98766 17.0177 6.1448 16.9949 6.51435C16.9714 6.89479 16.872 7.39872 16.7245 8.13776L17.2148 8.23563ZM13.5336 12.9167V13.4167C14.1715 13.4167 14.6952 13.4175 15.1153 13.3661C15.549 13.3131 15.9302 13.1988 16.2605 12.9296L15.9447 12.542L15.6288 12.1544C15.4994 12.2599 15.3255 12.3329 14.9938 12.3735C14.6485 12.4158 14.1966 12.4167 13.5336 12.4167V12.9167ZM16.7983 10.2562L16.3086 10.1553C16.1748 10.8046 16.0827 11.2471 15.9716 11.5767C15.8649 11.8934 15.7583 12.0489 15.6288 12.1544L15.9447 12.542L16.2605 12.9296C16.5908 12.6604 16.7797 12.3101 16.9193 11.8961C17.0544 11.495 17.1593 10.9819 17.288 10.3572L16.7983 10.2562Z" fill="currentColor"/>
</svg>
