<svg xmlns="http://www.w3.org/2000/svg" width="24" height="25" viewBox="0 0 24 25" fill="none">
  <path d="M6.75 15.125H15.15" stroke="currentColor" stroke-width="1.05" stroke-linecap="round"/>
  <path d="M6.75 18.8008H12.525" stroke="currentColor" stroke-width="1.05" stroke-linecap="round"/>
  <path d="M3.87898 21.6213L4.23254 21.2678L4.23254 21.2678L3.87898 21.6213ZM20.1216 21.6213L19.7681 21.2678V21.2678L20.1216 21.6213ZM20.1216 5.37868L20.4752 5.02513L20.1216 5.37868ZM3.87898 5.37868L3.52543 5.02513L3.87898 5.37868ZM21.0003 10.5H20.5003V16.5H21.0003H21.5003V10.5H21.0003ZM15.0003 22.5V22H9.0003V22.5V23H15.0003V22.5ZM3.00031 16.5H3.50031V10.5H3.00031H2.50031V16.5H3.00031ZM9.0003 22.5V22C7.57196 22 6.55099 21.9989 5.77511 21.8946C5.01362 21.7922 4.56349 21.5987 4.23254 21.2678L3.87898 21.6213L3.52543 21.9749C4.07316 22.5226 4.76948 22.7684 5.64187 22.8857C6.49987 23.0011 7.60023 23 9.0003 23V22.5ZM3.00031 16.5H2.50031C2.50031 17.9001 2.49924 19.0004 2.6146 19.8584C2.73189 20.7308 2.97771 21.4271 3.52543 21.9749L3.87898 21.6213L4.23254 21.2678C3.90158 20.9368 3.70806 20.4867 3.60568 19.7252C3.50137 18.9493 3.50031 17.9283 3.50031 16.5H3.00031ZM21.0003 16.5H20.5003C20.5003 17.9283 20.4992 18.9493 20.3949 19.7252C20.2925 20.4867 20.099 20.9368 19.7681 21.2678L20.1216 21.6213L20.4752 21.9749C21.0229 21.4271 21.2687 20.7308 21.386 19.8584C21.5014 19.0004 21.5003 17.9001 21.5003 16.5H21.0003ZM15.0003 22.5V23C16.4004 23 17.5007 23.0011 18.3587 22.8857C19.2311 22.7684 19.9275 22.5226 20.4752 21.9749L20.1216 21.6213L19.7681 21.2678C19.4371 21.5987 18.987 21.7922 18.2255 21.8946C17.4496 21.9989 16.4287 22 15.0003 22V22.5ZM21.0003 10.5H21.5003C21.5003 9.09992 21.5014 7.99956 21.386 7.14156C21.2687 6.26917 21.0229 5.57285 20.4752 5.02513L20.1216 5.37868L19.7681 5.73223C20.099 6.06319 20.2925 6.51331 20.3949 7.27481C20.4992 8.05069 20.5003 9.07165 20.5003 10.5H21.0003ZM3.00031 10.5H3.50031C3.50031 9.07165 3.50137 8.05069 3.60568 7.27481C3.70806 6.51331 3.90158 6.06319 4.23254 5.73223L3.87898 5.37868L3.52543 5.02513C2.97771 5.57285 2.73189 6.26917 2.6146 7.14156C2.49924 7.99956 2.50031 9.09992 2.50031 10.5H3.00031ZM16.0003 4.50174L15.9975 5.00173C17.089 5.00781 17.8852 5.03578 18.4981 5.14838C19.0968 5.25835 19.4777 5.44187 19.7681 5.73223L20.1216 5.37868L20.4752 5.02513C19.9972 4.54711 19.4049 4.29821 18.6788 4.16483C17.9669 4.03408 17.0866 4.00778 16.0031 4.00175L16.0003 4.50174ZM8.00031 4.50174L7.99752 4.00175C6.914 4.00778 6.03366 4.03408 5.32182 4.16483C4.59569 4.29821 4.00345 4.54711 3.52543 5.02513L3.87898 5.37868L4.23254 5.73223C4.5229 5.44187 4.90381 5.25835 5.50249 5.14838C6.11545 5.03578 6.91159 5.00781 8.00309 5.00173L8.00031 4.50174ZM9.50031 2.5V3H14.5003V2.5V2H9.50031V2.5ZM16.0003 4H15.5003V5H16.0003H16.5003V4H16.0003ZM14.5003 6.5V6H9.50031V6.5V7H14.5003V6.5ZM8.00031 5H8.50031V4H8.00031H7.50031V5H8.00031ZM9.50031 6.5V6C8.94802 6 8.50031 5.55228 8.50031 5H8.00031H7.50031C7.50031 6.10457 8.39574 7 9.50031 7V6.5ZM16.0003 5H15.5003C15.5003 5.55228 15.0526 6 14.5003 6V6.5V7C15.6049 7 16.5003 6.10457 16.5003 5H16.0003ZM14.5003 2.5V3C15.0526 3 15.5003 3.44772 15.5003 4H16.0003H16.5003C16.5003 2.89543 15.6049 2 14.5003 2V2.5ZM9.50031 2.5V2C8.39574 2 7.50031 2.89543 7.50031 4H8.00031H8.50031C8.50031 3.44772 8.94802 3 9.50031 3V2.5Z" fill="currentColor"/>
</svg>
