<svg xmlns="http://www.w3.org/2000/svg" width="14" height="8" viewBox="0 0 14 8" fill="none">
  <path d="M1.02514 0.677488C1.20137 0.501313 1.44036 0.402344 1.68954 0.402344C1.93873 0.402344 2.17771 0.501313 2.35394 0.677488L7.00567 5.32922L11.6574 0.677488C11.8346 0.506306 12.072 0.411585 12.3184 0.413727C12.5648 0.415868 12.8005 0.514699 12.9748 0.688935C13.149 0.863172 13.2478 1.09887 13.25 1.34527C13.2521 1.59167 13.1574 1.82905 12.9862 2.00629L7.67007 7.32242C7.49384 7.49859 7.25486 7.59756 7.00567 7.59756C6.75649 7.59756 6.5175 7.49859 6.34127 7.32242L1.02514 2.00629C0.84897 1.83006 0.75 1.59107 0.75 1.34189C0.75 1.0927 0.84897 0.853716 1.02514 0.677488Z" fill="currentColor"/>
</svg>
