<svg width="860" height="900" viewBox="0 0 860 900" fill="none" xmlns="http://www.w3.org/2000/svg">
<g opacity="0.12" filter="url(#filter0_f_6766_137008)">
<path fill-rule="evenodd" clip-rule="evenodd" d="M364.345 203.207C419.361 196.521 464.51 124.287 516.485 143.522C565.108 161.517 558.328 235.493 579.481 282.828C598.261 324.855 623.732 362.219 634.24 407.036C646.904 461.046 676.093 522.999 646.848 570.139C617.419 617.576 540.808 601.28 494.445 632.375C443.195 666.748 425.965 756.286 364.345 759.61C303.881 762.872 261.558 695.789 225.881 646.864C197.534 607.991 214.117 548.537 183.416 511.496C142.732 462.41 48.8668 466.961 27.105 407.036C7.32487 352.569 48.7585 290.319 87.418 247.152C123.701 206.639 178.443 186.601 232.156 178.077C277.222 170.926 319.049 208.712 364.345 203.207Z" fill="url(#paint0_linear_6766_137008)"/>
</g>
<defs>
<filter id="filter0_f_6766_137008" x="-178" y="-59.7246" width="1037.43" height="1019.45" filterUnits="userSpaceOnUse" color-interpolation-filters="sRGB">
<feFlood flood-opacity="0" result="BackgroundImageFix"/>
<feBlend mode="normal" in="SourceGraphic" in2="BackgroundImageFix" result="shape"/>
<feGaussianBlur stdDeviation="100" result="effect1_foregroundBlur_6766_137008"/>
</filter>
<linearGradient id="paint0_linear_6766_137008" x1="148.613" y1="208.16" x2="898.319" y2="1196.34" gradientUnits="userSpaceOnUse">
<stop stop-color="#006580"/>
<stop offset="0.4" stop-color="#107281"/>
<stop offset="1" stop-color="#4CA485"/>
</linearGradient>
</defs>
</svg>
