<svg xmlns="http://www.w3.org/2000/svg" width="20" height="19" viewBox="0 0 20 19" fill="none">
  <mask id="path-1-inside-1_7017_5925" fill="currentColor">
    <path fill-rule="evenodd" clip-rule="evenodd" d="M7 18.0723H19C19.41 18.0723 19.75 17.7323 19.75 17.3223C19.75 16.9123 19.41 16.5723 19 16.5723H6.999C4.379 16.5723 3.07 16.5723 2.41 15.9123C1.75 15.2523 1.75 13.9423 1.75 11.3223V1.32227C1.75 0.912266 1.41 0.572266 1 0.572266C0.59 0.572266 0.25 0.912266 0.25 1.32227V11.3223C0.25 14.3523 0.25 15.8723 1.35 16.9723C2.45 18.0723 3.97 18.0723 6.999 18.0723H7ZM3.47 11.8523C3.62 12.0023 3.81 12.0723 4 12.0723C4.19 12.0723 4.38 12.0023 4.53 11.8523L7.78 8.60227C8.26 8.12227 8.61 7.77227 8.8 7.72227C8.93 7.68227 9.06 7.68227 9.21 7.72227C9.39 7.77227 9.74 8.12227 10.22 8.60227C10.94 9.32227 11.33 9.71227 11.88 9.86227C12.29 9.98227 12.72 9.98227 13.11 9.86227C13.67 9.71227 14.06 9.32227 14.78 8.60227L18.53 4.85227C18.82 4.56227 18.82 4.08227 18.53 3.79227C18.3889 3.65279 18.1984 3.57456 18 3.57456C17.8016 3.57456 17.6111 3.65279 17.47 3.79227L13.72 7.54227L13.718 7.54327C13.238 8.02327 12.889 8.37327 12.699 8.42327C12.569 8.46327 12.439 8.46327 12.289 8.42327C12.109 8.37327 11.76 8.02327 11.281 7.54327H11.279C10.559 6.82327 10.169 6.43327 9.619 6.28327C9.209 6.16327 8.779 6.16327 8.389 6.28327C7.829 6.43327 7.439 6.82327 6.719 7.54327L3.469 10.7933C3.179 11.0833 3.179 11.5633 3.469 11.8533"/>
  </mask>
  <path d="M4.53 11.8523L5.37853 12.7008L4.53 11.8523ZM7.78 8.60227L6.93147 7.75374V7.75374L7.78 8.60227ZM8.8 7.72227L9.10539 8.88276L9.12929 8.87647L9.1529 8.8692L8.8 7.72227ZM9.21 7.72227L9.53119 6.56598L9.5192 6.56278L9.21 7.72227ZM11.88 9.86227L12.2171 8.71058L12.2064 8.70747L12.1957 8.70455L11.88 9.86227ZM13.11 9.86227L12.7995 8.70313L12.7782 8.70884L12.7571 8.71533L13.11 9.86227ZM14.78 8.60227L15.6285 9.45079L14.78 8.60227ZM18.53 4.85227L17.6815 4.00374L18.53 4.85227ZM18.53 3.79227L19.3785 2.94372L19.3735 2.93874L18.53 3.79227ZM18 3.57456V4.77456V3.57456ZM17.47 3.79227L16.6265 2.93873L16.6215 2.94374L17.47 3.79227ZM13.72 7.54227L14.2569 8.61548L14.4309 8.52841L14.5685 8.39079L13.72 7.54227ZM13.718 7.54327L13.1811 6.47006L13.0071 6.55712L12.8695 6.69474L13.718 7.54327ZM12.699 8.42327L12.3936 7.26278L12.3697 7.26906L12.3461 7.27633L12.699 8.42327ZM12.289 8.42327L11.9678 9.57955L11.9798 9.58275L12.289 8.42327ZM11.281 7.54327L12.1304 6.69562L11.7788 6.34327H11.281V7.54327ZM11.279 7.54327L10.4305 8.39179L10.7819 8.74327H11.279V7.54327ZM9.619 6.28327L9.28192 7.43495L9.29256 7.43807L9.30326 7.44098L9.619 6.28327ZM8.389 6.28327L8.69948 7.4424L8.72081 7.43669L8.7419 7.4302L8.389 6.28327ZM6.719 7.54327L5.87047 6.69474V6.69474L6.719 7.54327ZM3.469 10.7933L4.31753 11.6418L3.469 10.7933ZM7 18.0723V19.2723H19V18.0723V16.8723H7V18.0723ZM19 18.0723V19.2723C20.0727 19.2723 20.95 18.395 20.95 17.3223H19.75H18.55C18.55 17.0695 18.7473 16.8723 19 16.8723V18.0723ZM19.75 17.3223H20.95C20.95 16.2495 20.0727 15.3723 19 15.3723V16.5723V17.7723C18.7473 17.7723 18.55 17.575 18.55 17.3223H19.75ZM19 16.5723V15.3723H6.999V16.5723V17.7723H19V16.5723ZM6.999 16.5723V15.3723C5.6595 15.3723 4.75755 15.3705 4.10295 15.2972C3.44137 15.2232 3.29248 15.0977 3.25853 15.0637L2.41 15.9123L1.56147 16.7608C2.18752 17.3868 3.02313 17.5914 3.83605 17.6823C4.65594 17.7741 5.71849 17.7723 6.999 17.7723V16.5723ZM2.41 15.9123L3.25853 15.0637C3.22467 15.0299 3.09912 14.8809 3.02506 14.2189C2.9518 13.564 2.95 12.6617 2.95 11.3223H1.75H0.55C0.55 12.6028 0.548197 13.6656 0.639938 14.4857C0.730881 15.2986 0.935328 16.1347 1.56147 16.7608L2.41 15.9123ZM1.75 11.3223H2.95V1.32227H1.75H0.55V11.3223H1.75ZM1.75 1.32227H2.95C2.95 0.249524 2.07274 -0.627734 1 -0.627734V0.572266V1.77227C0.747258 1.77227 0.55 1.57501 0.55 1.32227H1.75ZM1 0.572266V-0.627734C-0.0727417 -0.627734 -0.95 0.249524 -0.95 1.32227H0.25H1.45C1.45 1.57501 1.25274 1.77227 1 1.77227V0.572266ZM0.25 1.32227H-0.95V11.3223H0.25H1.45V1.32227H0.25ZM0.25 11.3223H-0.95C-0.95 12.8001 -0.953249 14.0451 -0.798622 15.053C-0.635193 16.1183 -0.280853 17.0385 0.501472 17.8208L1.35 16.9723L2.19853 16.1237C1.88085 15.8061 1.68519 15.4163 1.57362 14.689C1.45325 13.9044 1.45 12.8744 1.45 11.3223H0.25ZM1.35 16.9723L0.501472 17.8208C1.28378 18.6031 2.20399 18.9575 3.26913 19.1209C4.2769 19.2755 5.52164 19.2723 6.999 19.2723V18.0723V16.8723C5.44736 16.8723 4.4176 16.869 3.63312 16.7486C2.90601 16.6371 2.51622 16.4414 2.19853 16.1237L1.35 16.9723ZM6.999 18.0723V19.2723H7V18.0723V16.8723H6.999V18.0723ZM3.47 11.8523L2.62147 12.7008C3.00838 13.0877 3.50892 13.2723 4 13.2723V12.0723V10.8723C4.11108 10.8723 4.23162 10.9168 4.31853 11.0037L3.47 11.8523ZM4 12.0723V13.2723C4.49108 13.2723 4.99162 13.0877 5.37853 12.7008L4.53 11.8523L3.68147 11.0037C3.76838 10.9168 3.88892 10.8723 4 10.8723V12.0723ZM4.53 11.8523L5.37853 12.7008L8.62853 9.45079L7.78 8.60227L6.93147 7.75374L3.68147 11.0037L4.53 11.8523ZM7.78 8.60227L8.62853 9.45079C8.87716 9.20217 9.05867 9.02121 9.20043 8.89394C9.27037 8.83115 9.30772 8.80239 9.32026 8.79353C9.32542 8.78988 9.31306 8.79916 9.28575 8.81371C9.26116 8.82682 9.19853 8.85824 9.10539 8.88276L8.8 7.72227L8.49461 6.56178C8.23668 6.62965 8.0382 6.76078 7.93568 6.83319C7.81415 6.91902 7.69838 7.01713 7.59707 7.10809C7.39633 7.28832 7.16284 7.52237 6.93147 7.75374L7.78 8.60227ZM8.8 7.72227L9.1529 8.8692C9.10664 8.88344 9.05279 8.89227 8.9975 8.89227C8.94456 8.89227 8.90988 8.88417 8.9008 8.88175L9.21 7.72227L9.5192 6.56278C9.18317 6.47318 8.8214 6.46016 8.4471 6.57533L8.8 7.72227ZM9.21 7.72227L8.88883 8.87849C8.79279 8.85181 8.72897 8.81827 8.70595 8.80558C8.67955 8.79102 8.66803 8.78211 8.67417 8.78654C8.6884 8.79681 8.72698 8.82716 8.79757 8.89101C8.94016 9.01996 9.12337 9.20269 9.37147 9.45079L10.22 8.60227L11.0685 7.75374C10.8366 7.52184 10.6048 7.28957 10.4074 7.11102C10.308 7.02112 10.1954 6.9246 10.0783 6.84018C9.98284 6.77129 9.78687 6.63707 9.53117 6.56604L9.21 7.72227ZM10.22 8.60227L9.37147 9.45079C10.0113 10.0906 10.6404 10.768 11.5643 11.02L11.88 9.86227L12.1957 8.70455C12.0196 8.65652 11.8687 8.55393 11.0685 7.75374L10.22 8.60227ZM11.88 9.86227L11.5429 11.014C12.1673 11.1967 12.8375 11.2016 13.4629 11.0092L13.11 9.86227L12.7571 8.71533C12.6025 8.76289 12.4127 8.76785 12.2171 8.71058L11.88 9.86227ZM13.11 9.86227L13.4205 11.0214C14.3573 10.7705 14.9869 10.0924 15.6285 9.45079L14.78 8.60227L13.9315 7.75374C13.1331 8.5521 12.9827 8.65405 12.7995 8.70313L13.11 9.86227ZM14.78 8.60227L15.6285 9.45079L19.3785 5.70079L18.53 4.85227L17.6815 4.00374L13.9315 7.75374L14.78 8.60227ZM18.53 4.85227L19.3785 5.70079C20.1372 4.94216 20.1372 3.70237 19.3785 2.94374L18.53 3.79227L17.6815 4.64079C17.5028 4.46216 17.5028 4.18237 17.6815 4.00374L18.53 4.85227ZM18.53 3.79227L19.3735 2.93874C19.0077 2.57727 18.5142 2.37456 18 2.37456V3.57456V4.77456C17.8826 4.77456 17.77 4.7283 17.6865 4.64579L18.53 3.79227ZM18 3.57456V2.37456C17.4858 2.37456 16.9923 2.57727 16.6265 2.93874L17.47 3.79227L18.3135 4.64579C18.23 4.7283 18.1174 4.77456 18 4.77456V3.57456ZM17.47 3.79227L16.6215 2.94374L12.8715 6.69374L13.72 7.54227L14.5685 8.39079L18.3185 4.64079L17.47 3.79227ZM13.72 7.54227L13.1831 6.46906L13.1811 6.47006L13.718 7.54327L14.2549 8.61648L14.2569 8.61548L13.72 7.54227ZM13.718 7.54327L12.8695 6.69474C12.6204 6.94381 12.4392 7.1247 12.2974 7.25217C12.2275 7.31501 12.1903 7.3437 12.1779 7.35246C12.1729 7.35605 12.1853 7.34669 12.2128 7.33205C12.2375 7.31884 12.3003 7.28733 12.3936 7.26278L12.699 8.42327L13.0044 9.58376C13.2627 9.51579 13.4613 9.3844 13.5638 9.31189C13.6853 9.22596 13.801 9.12777 13.9021 9.03686C14.1023 8.85683 14.3356 8.62272 14.5665 8.39179L13.718 7.54327ZM12.699 8.42327L12.3461 7.27633C12.3924 7.26209 12.4462 7.25327 12.5015 7.25327C12.5544 7.25327 12.5891 7.26136 12.5982 7.26378L12.289 8.42327L11.9798 9.58275C12.3158 9.67235 12.6776 9.68537 13.0519 9.5702L12.699 8.42327ZM12.289 8.42327L12.6102 7.26704C12.7064 7.29377 12.7704 7.3274 12.7936 7.34021C12.8201 7.35488 12.8318 7.3639 12.8258 7.35955C12.8118 7.34943 12.7734 7.31922 12.703 7.2554C12.5608 7.12649 12.3781 6.94387 12.1304 6.69562L11.281 7.54327L10.4316 8.39091C10.6629 8.62266 10.8942 8.85504 11.0912 9.03363C11.1904 9.12357 11.303 9.22023 11.4201 9.3048C11.5156 9.37385 11.7117 9.50835 11.9678 9.57949L12.289 8.42327ZM11.281 7.54327V6.34327H11.279V7.54327V8.74327H11.281V7.54327ZM11.279 7.54327L12.1275 6.69474C11.4877 6.05492 10.8586 5.37752 9.93474 5.12555L9.619 6.28327L9.30326 7.44098C9.47937 7.48901 9.63028 7.59161 10.4305 8.39179L11.279 7.54327ZM9.619 6.28327L9.95608 5.13158C9.33174 4.94885 8.66153 4.94389 8.0361 5.13633L8.389 6.28327L8.7419 7.4302C8.89647 7.38264 9.08626 7.37768 9.28192 7.43495L9.619 6.28327ZM8.389 6.28327L8.07852 5.12413C7.14173 5.37505 6.51211 6.0531 5.87047 6.69474L6.719 7.54327L7.56753 8.39179C8.36589 7.59343 8.51627 7.49148 8.69948 7.4424L8.389 6.28327ZM6.719 7.54327L5.87047 6.69474L2.62047 9.94474L3.469 10.7933L4.31753 11.6418L7.56753 8.39179L6.719 7.54327ZM3.469 10.7933L2.62047 9.94474C1.86184 10.7034 1.86184 11.9432 2.62047 12.7018L3.469 11.8533L4.31753 11.0047C4.49616 11.1834 4.49616 11.4632 4.31753 11.6418L3.469 10.7933Z" fill="currentColor" mask="url(#path-1-inside-1_7017_5925)"/>
</svg>
