<svg xmlns="http://www.w3.org/2000/svg" width="21" height="21" viewBox="0 0 21 21" fill="none">
  <path d="M14 7.99967C14.7956 7.99967 15.5587 7.68361 16.1213 7.12103C16.6839 6.55845 17 5.79542 17 4.99981C17 4.2042 16.6839 3.44117 16.1213 2.87859C15.5587 2.31601 14.7956 1.99995 14 1.99995M17 12.9994C18.754 13.3844 20 14.3584 20 15.4993C20 16.5293 18.986 17.4222 17.5 17.8692M12 4.99981C12 7.20884 10.2091 8.99962 8 8.99962C5.79086 8.99962 4 7.20884 4 4.99981C4 2.79078 5.79086 1 8 1C10.2091 1 12 2.79078 12 4.99981ZM15 15.9993C15 18.2083 11.866 19.9991 8 19.9991C4.13401 19.9991 1 18.2083 1 15.9993C1 13.7903 4.13401 11.9995 8 11.9995C11.866 11.9995 15 13.7903 15 15.9993Z" stroke="white" stroke-width="1.1" stroke-linecap="round"/>
</svg>
