<svg xmlns="http://www.w3.org/2000/svg" width="13" height="13" viewBox="0 0 13 13" fill="none">
  <mask id="path-1-inside-1_7816_5609" fill="white">
    <path d="M7.03195 0.543417C7.03195 0.399524 7.08911 0.261524 7.19086 0.159776C7.29261 0.0580279 7.43061 0.000866436 7.5745 0.000866436C9.01295 0.00244613 10.392 0.574568 11.4092 1.59171C12.4263 2.60884 12.9984 3.98792 13 5.42637C13 5.57027 12.9428 5.70827 12.8411 5.81002C12.7393 5.91176 12.6013 5.96892 12.4574 5.96892C12.3136 5.96892 12.1756 5.91176 12.0738 5.81002C11.9721 5.70827 11.9149 5.57027 11.9149 5.42637C11.9136 4.27562 11.4559 3.17237 10.6422 2.35867C9.8285 1.54497 8.72525 1.08726 7.5745 1.08597C7.43061 1.08597 7.29261 1.02881 7.19086 0.927059C7.08911 0.82531 7.03195 0.687311 7.03195 0.543417ZM7.5745 3.25617C8.15007 3.25617 8.70207 3.48482 9.10906 3.89181C9.51605 4.2988 9.7447 4.8508 9.7447 5.42637C9.7447 5.57027 9.80186 5.70827 9.90361 5.81002C10.0054 5.91176 10.1434 5.96892 10.2872 5.96892C10.4311 5.96892 10.5691 5.91176 10.6709 5.81002C10.7726 5.70827 10.8298 5.57027 10.8298 5.42637C10.8289 4.56328 10.4857 3.73578 9.87539 3.12548C9.26509 2.51518 8.4376 2.17193 7.5745 2.17107C7.43061 2.17107 7.29261 2.22823 7.19086 2.32998C7.08911 2.43173 7.03195 2.56973 7.03195 2.71362C7.03195 2.85751 7.08911 2.99551 7.19086 3.09726C7.29261 3.19901 7.43061 3.25617 7.5745 3.25617ZM12.5079 9.08262C12.8223 9.39791 12.9989 9.825 12.9989 10.2703C12.9989 10.7155 12.8223 11.1426 12.5079 11.4579L12.0142 12.027C7.5707 16.2812 -3.24232 5.47086 0.946166 1.01327L1.5701 0.470715C1.88574 0.165084 2.30901 -0.00398989 2.74836 7.15134e-05C3.1877 0.00413292 3.60778 0.181003 3.91771 0.492417C3.93453 0.509237 4.93988 1.81516 4.93988 1.81516C5.23819 2.12855 5.40425 2.54485 5.40354 2.97752C5.40283 3.41019 5.23541 3.82594 4.93608 4.13836L4.30781 4.92831C4.6555 5.77312 5.1667 6.54091 5.81203 7.18755C6.45736 7.83418 7.22411 8.34693 8.06822 8.69633L8.86306 8.06426C9.17551 7.76516 9.59119 7.59793 10.0237 7.59732C10.4563 7.59672 10.8724 7.76278 11.1857 8.061C11.1857 8.061 12.4911 9.0658 12.5079 9.08262ZM11.7614 9.87149C11.7614 9.87149 10.463 8.87266 10.4462 8.85584C10.3344 8.74501 10.1834 8.68283 10.026 8.68283C9.86861 8.68283 9.71758 8.74501 9.60581 8.85584C9.59116 8.87103 8.49683 9.74291 8.49683 9.74291C8.42309 9.80161 8.33533 9.84008 8.24219 9.85454C8.14905 9.869 8.05375 9.85895 7.96568 9.82537C6.87215 9.41823 5.87889 8.78082 5.05318 7.95633C4.22747 7.13184 3.5886 6.13952 3.17984 5.04659C3.1436 4.95731 3.13179 4.86 3.14561 4.76465C3.15944 4.66929 3.19841 4.57934 3.25851 4.50404C3.25851 4.50404 4.13039 3.40917 4.14504 3.39506C4.25587 3.28329 4.31805 3.13226 4.31805 2.97486C4.31805 2.81746 4.25587 2.66643 4.14504 2.55465C4.12822 2.53838 3.12939 1.23897 3.12939 1.23897C3.01594 1.13724 2.86788 1.08276 2.71556 1.0867C2.56323 1.09063 2.41818 1.15268 2.31014 1.26013L1.6862 1.80268C-1.37486 5.48334 7.99552 14.334 11.221 11.2859L11.7152 10.7162C11.8311 10.609 11.9006 10.4608 11.9092 10.3032C11.9178 10.1456 11.8648 9.99075 11.7614 9.87149Z"/>
  </mask>
  <path d="M7.5745 0.000866436L7.58329 -7.99913H7.5745V0.000866436ZM13 5.42637H21L21 5.41759L13 5.42637ZM11.9149 5.42637H19.9149L19.9149 5.41739L11.9149 5.42637ZM7.5745 1.08597L7.58349 -6.91403H7.5745V1.08597ZM10.8298 5.42637H18.8298L18.8298 5.41839L10.8298 5.42637ZM7.5745 2.17107L7.58249 -5.82893H7.5745V2.17107ZM12.5079 9.08262L18.1726 3.43359L18.1648 3.42577L12.5079 9.08262ZM12.9989 10.2703H4.99888H12.9989ZM12.5079 11.4579L6.84324 5.80888L6.64699 6.00568L6.46486 6.21562L12.5079 11.4579ZM12.0142 12.027L17.5466 17.8057L17.8143 17.5493L18.0572 17.2693L12.0142 12.027ZM0.946166 1.01327L-4.30327 -5.02358L-4.60769 -4.75886L-4.88394 -4.46487L0.946166 1.01327ZM1.5701 0.470715L6.81953 6.50756L6.9812 6.36698L7.13511 6.21795L1.5701 0.470715ZM3.91771 0.492417L-1.7526 6.13578L-1.74588 6.14253L-1.73915 6.14927L3.91771 0.492417ZM4.93988 1.81516L-1.39926 6.69526L-1.14362 7.02732L-0.854694 7.33086L4.93988 1.81516ZM4.93608 4.13836L-0.840428 -1.39626L-1.09556 -1.12997L-1.32511 -0.841347L4.93608 4.13836ZM4.30781 4.92831L-1.95339 -0.0513929L-4.87884 3.62691L-3.09015 7.97303L4.30781 4.92831ZM8.06822 8.69633L5.00858 16.0881L9.3608 17.8896L13.0475 14.9578L8.06822 8.69633ZM8.86306 8.06426L13.8424 14.3258L14.1298 14.0972L14.395 13.8433L8.86306 8.06426ZM11.1857 8.061L5.66995 13.8555L7.9869 16.061H11.1857V8.061ZM10.4462 8.85584L16.1031 3.19899L16.091 3.18695L16.0789 3.17496L10.4462 8.85584ZM9.60581 8.85584L3.97308 3.17496L3.90935 3.23815L3.84705 3.30276L9.60581 8.85584ZM8.49683 9.74291L13.479 16.0021L13.4819 15.9998L8.49683 9.74291ZM7.96568 9.82537L10.8155 2.35017L10.7863 2.33905L10.7571 2.32816L7.96568 9.82537ZM3.17984 5.04659L10.6729 2.24416L10.634 2.14017L10.5923 2.03729L3.17984 5.04659ZM3.25851 4.50404L9.51095 9.49474L9.51665 9.48759L3.25851 4.50404ZM4.14504 3.39506L9.69418 9.15762L9.7608 9.09347L9.82592 9.02779L4.14504 3.39506ZM4.31805 2.97486H12.318H4.31805ZM4.14504 2.55465L9.82592 -3.07807L9.76777 -3.13672L9.70842 -3.19416L4.14504 2.55465ZM3.12939 1.23897L9.47206 -3.63654L9.02107 -4.22323L8.47013 -4.71725L3.12939 1.23897ZM2.31014 1.26013L7.55957 7.29697L7.76149 7.12139L7.95122 6.93271L2.31014 1.26013ZM1.6862 1.80268L-3.56323 -4.23416L-4.05116 -3.80987L-4.46462 -3.31273L1.6862 1.80268ZM11.221 11.2859L16.7157 17.1004L17.0038 16.8281L17.2636 16.5286L11.221 11.2859ZM11.7152 10.7162L6.2789 4.84715L5.95865 5.14379L5.67257 5.47352L11.7152 10.7162ZM7.03195 0.543417H15.0319C15.0319 2.52126 14.2463 4.41809 12.8477 5.81663L7.19086 0.159776L1.534 -5.49708C-0.0680331 -3.89504 -0.96805 -1.72221 -0.96805 0.543417H7.03195ZM7.19086 0.159776L12.8477 5.81663C11.4492 7.21517 9.55234 8.00087 7.5745 8.00087V0.000866436V-7.99913C5.30887 -7.99913 3.13604 -7.09911 1.534 -5.49708L7.19086 0.159776ZM7.5745 0.000866436L7.56571 8.00086C6.88547 8.00011 6.23331 7.72956 5.75231 7.24856L11.4092 1.59171L17.066 -4.06515C14.5507 -6.58042 11.1404 -7.99522 7.58329 -7.99913L7.5745 0.000866436ZM11.4092 1.59171L5.75231 7.24856C5.2713 6.76755 5.00075 6.11539 5.00001 5.43516L13 5.42637L21 5.41759C20.9961 1.86046 19.5813 -1.54987 17.066 -4.06515L11.4092 1.59171ZM13 5.42637H5C5 3.44855 5.78568 1.55172 7.18423 0.153164L12.8411 5.81002L18.4979 11.4669C20.1 9.86482 21 7.69198 21 5.42637H13ZM12.8411 5.81002L7.18423 0.153164C8.58278 -1.24538 10.4796 -2.03108 12.4574 -2.03108V5.96892V13.9689C14.7231 13.9689 16.8959 13.0689 18.4979 11.4669L12.8411 5.81002ZM12.4574 5.96892V-2.03108C14.4353 -2.03108 16.3321 -1.24538 17.7307 0.153164L12.0738 5.81002L6.41695 11.4669C8.01899 13.0689 10.1918 13.9689 12.4574 13.9689V5.96892ZM12.0738 5.81002L17.7307 0.153164C19.1292 1.55172 19.9149 3.44855 19.9149 5.42637H11.9149H3.9149C3.9149 7.69198 4.8149 9.86482 6.41695 11.4669L12.0738 5.81002ZM11.9149 5.42637L19.9149 5.41739C19.9112 2.14802 18.6108 -0.986387 16.2991 -3.29818L10.6422 2.35867L4.98534 8.01552C4.30096 7.33114 3.91599 6.40322 3.91491 5.43536L11.9149 5.42637ZM10.6422 2.35867L16.2991 -3.29818C13.9873 -5.60997 10.8529 -6.91036 7.58349 -6.91403L7.5745 1.08597L7.56552 9.08596C6.59764 9.08488 5.66973 8.69991 4.98534 8.01552L10.6422 2.35867ZM7.5745 1.08597V-6.91403C9.55234 -6.91403 11.4492 -6.12834 12.8477 -4.72979L7.19086 0.927059L1.534 6.58391C3.13604 8.18595 5.30887 9.08597 7.5745 9.08597V1.08597ZM7.19086 0.927059L12.8477 -4.72979C14.2463 -3.33125 15.0319 -1.43442 15.0319 0.543417H7.03195H-0.96805C-0.96805 2.80904 -0.0680336 4.98187 1.534 6.58391L7.19086 0.927059ZM7.5745 3.25617V11.2562C6.02834 11.2562 4.5455 10.642 3.4522 9.54866L9.10906 3.89181L14.7659 -1.76504C12.8586 -3.67232 10.2718 -4.74383 7.5745 -4.74383V3.25617ZM9.10906 3.89181L3.4522 9.54866C2.35891 8.45536 1.7447 6.97253 1.7447 5.42637H9.7447H17.7447C17.7447 2.72907 16.6732 0.14224 14.7659 -1.76504L9.10906 3.89181ZM9.7447 5.42637H1.7447C1.7447 7.69198 2.6447 9.86482 4.24675 11.4669L9.90361 5.81002L15.5605 0.153164C16.959 1.55172 17.7447 3.44855 17.7447 5.42637H9.7447ZM9.90361 5.81002L4.24675 11.4669C5.84879 13.0689 8.02162 13.9689 10.2872 13.9689V5.96892V-2.03108C12.2651 -2.03108 14.1619 -1.24538 15.5605 0.153164L9.90361 5.81002ZM10.2872 5.96892V13.9689C12.5529 13.9689 14.7257 13.0689 16.3277 11.4669L10.6709 5.81002L5.01403 0.153164C6.41258 -1.24538 8.30941 -2.03108 10.2872 -2.03108V5.96892ZM10.6709 5.81002L16.3277 11.4669C17.9298 9.86482 18.8298 7.69198 18.8298 5.42637H10.8298H2.8298C2.8298 3.44855 3.61548 1.55172 5.01403 0.153164L10.6709 5.81002ZM10.8298 5.42637L18.8298 5.41839C18.8268 2.43633 17.6409 -0.422736 15.5323 -2.53137L9.87539 3.12548L4.21854 8.78233C3.3305 7.89429 2.83106 6.69022 2.8298 5.43436L10.8298 5.42637ZM9.87539 3.12548L15.5323 -2.53137C13.4236 -4.64001 10.5646 -5.82595 7.58249 -5.82893L7.5745 2.17107L7.56651 10.1711C6.31064 10.1698 5.10657 9.67036 4.21854 8.78233L9.87539 3.12548ZM7.5745 2.17107V-5.82893C5.30887 -5.82893 3.13604 -4.92891 1.534 -3.32687L7.19086 2.32998L12.8477 7.98683C11.4492 9.38537 9.55235 10.1711 7.5745 10.1711V2.17107ZM7.19086 2.32998L1.534 -3.32687C-0.0680322 -1.72484 -0.96805 0.447992 -0.96805 2.71362H7.03195H15.0319C15.0319 4.69146 14.2463 6.58829 12.8477 7.98683L7.19086 2.32998ZM7.03195 2.71362H-0.96805C-0.96805 4.97925 -0.0680322 7.15208 1.534 8.75411L7.19086 3.09726L12.8477 -2.55959C14.2463 -1.16105 15.0319 0.735779 15.0319 2.71362H7.03195ZM7.19086 3.09726L1.534 8.75411C3.13604 10.3561 5.30887 11.2562 7.5745 11.2562V3.25617V-4.74383C9.55235 -4.74383 11.4492 -3.95813 12.8477 -2.55959L7.19086 3.09726ZM12.5079 9.08262L6.84324 14.7317C5.66214 13.5473 4.99888 11.9429 4.99888 10.2703H12.9989H20.9989C20.9989 7.70711 19.9825 5.24853 18.1726 3.43359L12.5079 9.08262ZM12.9989 10.2703H4.99888C4.99888 8.59764 5.66214 6.99325 6.84324 5.80888L12.5079 11.4579L18.1726 17.1069C19.9825 15.292 20.9989 12.8334 20.9989 10.2703H12.9989ZM12.5079 11.4579L6.46486 6.21562L5.97114 6.78475L12.0142 12.027L18.0572 17.2693L18.551 16.7002L12.5079 11.4579ZM12.0142 12.027L6.48179 6.24841C6.81245 5.93185 7.21471 5.64827 7.67281 5.43019C8.12697 5.21397 8.56599 5.09523 8.94865 5.04002C9.32447 4.9858 9.62452 4.99553 9.82389 5.01658C10.0216 5.03746 10.1417 5.07155 10.1776 5.08262C10.2146 5.09401 10.1952 5.0911 10.1219 5.05561C10.0498 5.02069 9.94375 4.96302 9.80928 4.87578C9.53301 4.69654 9.21172 4.44106 8.89267 4.12284C8.5737 3.8047 8.31572 3.48245 8.13326 3.20317C8.04441 3.06717 7.98488 2.95883 7.94816 2.88377C7.91086 2.80754 7.90616 2.78425 7.91629 2.81652C7.92608 2.8477 7.95957 2.96216 7.98117 3.15388C8.00293 3.34704 8.01501 3.64134 7.96483 4.01251C7.91375 4.39041 7.8004 4.82807 7.5889 5.2841C7.37542 5.74443 7.09448 6.15274 6.77627 6.4914L0.946166 1.01327L-4.88394 -4.46487C-8.61707 -0.491872 -8.34783 4.42803 -7.34897 7.60939C-6.36557 10.7415 -4.41329 13.4495 -2.40629 15.4513C-0.400757 17.4516 2.31708 19.4026 5.46481 20.3728C8.68045 21.3639 13.6049 21.5794 17.5466 17.8057L12.0142 12.027ZM0.946166 1.01327L6.1956 7.05011L6.81953 6.50756L1.5701 0.470715L-3.67933 -5.56613L-4.30327 -5.02358L0.946166 1.01327ZM1.5701 0.470715L7.13511 6.21795C5.94015 7.37502 4.33769 8.01511 2.67441 7.99973L2.74836 7.15134e-05L2.82231 -7.99959C0.28034 -8.02309 -2.16868 -7.04485 -3.99491 -5.27651L1.5701 0.470715ZM2.74836 7.15134e-05L2.67441 7.99973C1.01112 7.98435 -0.579233 7.31475 -1.7526 6.13578L3.91771 0.492417L9.58802 -5.15095C7.79479 -6.95274 5.36427 -7.97609 2.82231 -7.99959L2.74836 7.15134e-05ZM3.91771 0.492417L-1.73915 6.14927C-1.9396 5.94882 -2.08602 5.77975 -2.10715 5.75557C-2.15842 5.69686 -2.19804 5.64973 -2.2177 5.62622C-2.25843 5.57751 -2.28927 5.5394 -2.30005 5.52606C-2.32521 5.49493 -2.34313 5.47222 -2.34515 5.46966C-2.35299 5.45975 -2.35383 5.45859 -2.34228 5.47341C-2.32193 5.4995 -2.28811 5.54307 -2.24125 5.6036C-2.1492 5.72249 -2.02554 5.88267 -1.89952 6.04605C-1.77416 6.20858 -1.64904 6.37095 -1.55509 6.4929C-1.50817 6.55382 -1.46912 6.60452 -1.44184 6.63995C-1.4282 6.65766 -1.41751 6.67155 -1.41025 6.68098C-1.40662 6.68569 -1.40385 6.68929 -1.402 6.6917C-1.40107 6.6929 -1.40037 6.69381 -1.39991 6.6944C-1.39968 6.6947 -1.39951 6.69492 -1.3994 6.69506C-1.39935 6.69514 -1.39931 6.69519 -1.39929 6.69522C-1.39927 6.69524 -1.39927 6.69524 -1.39926 6.69525C-1.39926 6.69526 -1.39926 6.69526 4.93988 1.81516C11.279 -3.06494 11.279 -3.06495 11.279 -3.06497C11.279 -3.06498 11.279 -3.065 11.2789 -3.06503C11.2789 -3.06507 11.2789 -3.06514 11.2788 -3.06523C11.2787 -3.0654 11.2785 -3.06565 11.2782 -3.06598C11.2777 -3.06664 11.277 -3.06761 11.276 -3.06888C11.274 -3.07142 11.2712 -3.07515 11.2674 -3.08001C11.2599 -3.08972 11.249 -3.1039 11.2351 -3.12193C11.2074 -3.15799 11.1677 -3.20944 11.1202 -3.27122C11.0251 -3.39464 10.8978 -3.55981 10.7697 -3.72586C10.6423 -3.89107 10.5115 -4.06052 10.4103 -4.19122C10.3605 -4.25548 10.3131 -4.3167 10.2752 -4.36525C10.2577 -4.38775 10.2335 -4.41868 10.2091 -4.44957C10.1988 -4.46262 10.1742 -4.49362 10.1443 -4.53068C10.1311 -4.54698 10.0983 -4.58747 10.0561 -4.63794C10.0357 -4.66233 9.9955 -4.71019 9.94372 -4.76948C9.9221 -4.79424 9.77529 -4.96372 9.57457 -5.16443L3.91771 0.492417ZM4.93988 1.81516L-0.854694 7.33086C-1.9753 6.1536 -2.59911 4.58976 -2.59645 2.96444L5.40354 2.97752L13.4035 2.9906C13.4076 0.499933 12.4517 -1.8965 10.7344 -3.70054L4.93988 1.81516ZM5.40354 2.97752L-2.59645 2.96444C-2.59379 1.33912 -1.96487 -0.222668 -0.840428 -1.39626L4.93608 4.13836L10.7126 9.67297C12.4357 7.87455 13.3995 5.48126 13.4035 2.9906L5.40354 2.97752ZM4.93608 4.13836L-1.32511 -0.841347L-1.95339 -0.0513929L4.30781 4.92831L10.569 9.90802L11.1973 9.11806L4.93608 4.13836ZM4.30781 4.92831L-3.09015 7.97303C-2.34133 9.79248 -1.24037 11.446 0.149469 12.8387L5.81203 7.18755L11.4746 1.5364C11.5738 1.63578 11.6523 1.75377 11.7058 1.8836L4.30781 4.92831ZM5.81203 7.18755L0.149469 12.8387C1.53931 14.2313 3.19064 15.3356 5.00858 16.0881L8.06822 8.69633L11.1279 1.30453C11.2576 1.35823 11.3754 1.43703 11.4746 1.5364L5.81203 7.18755ZM8.06822 8.69633L13.0475 14.9578L13.8424 14.3258L8.86306 8.06426L3.88376 1.80274L3.08892 2.43481L8.06822 8.69633ZM8.86306 8.06426L14.395 13.8433C13.2213 14.9669 11.6598 15.595 10.0349 15.5973L10.0237 7.59732L10.0125 -0.402668C7.52259 -0.399178 5.12973 0.563456 3.33107 2.28523L8.86306 8.06426ZM10.0237 7.59732L10.0349 15.5973C8.4101 15.5996 6.84685 14.9758 5.66995 13.8555L11.1857 8.061L16.7015 2.26649C14.898 0.54976 12.5024 -0.406158 10.0125 -0.402668L10.0237 7.59732ZM11.1857 8.061C6.30599 14.4004 6.30599 14.4004 6.30599 14.4004C6.306 14.4004 6.30601 14.4004 6.30602 14.4005C6.30606 14.4005 6.30611 14.4005 6.30618 14.4006C6.30632 14.4007 6.30654 14.4009 6.30684 14.4011C6.30744 14.4015 6.30834 14.4022 6.30954 14.4032C6.31195 14.405 6.31555 14.4078 6.32026 14.4114C6.32968 14.4187 6.34356 14.4294 6.36127 14.443C6.39668 14.4702 6.44736 14.5093 6.50825 14.5562C6.63016 14.6501 6.79246 14.7751 6.95492 14.9004C7.11823 15.0264 7.27833 15.15 7.39717 15.2419C7.45767 15.2888 7.50121 15.3226 7.52727 15.3429C7.54208 15.3544 7.54091 15.3536 7.53097 15.3457C7.5284 15.3437 7.50567 15.3258 7.47451 15.3006C7.46116 15.2898 7.42302 15.2589 7.37427 15.2182C7.35075 15.1985 7.30359 15.1589 7.24485 15.1076C7.22062 15.0864 7.05153 14.94 6.85105 14.7395L12.5079 9.08262L18.1648 3.42577C17.964 3.22503 17.7945 3.0782 17.7697 3.05653C17.7104 3.00473 17.6625 2.96447 17.6381 2.94406C17.5876 2.90183 17.5471 2.86902 17.5308 2.85584C17.4937 2.82587 17.4627 2.80134 17.4496 2.79102C17.4187 2.76661 17.3878 2.74243 17.3653 2.72489C17.3167 2.68705 17.2555 2.63958 17.1913 2.58985C17.0606 2.48871 16.8912 2.35795 16.7261 2.2306C16.5601 2.10259 16.395 1.97538 16.2716 1.88035C16.2099 1.83279 16.1584 1.79318 16.1224 1.76543C16.1044 1.75156 16.0902 1.74064 16.0805 1.73317C16.0756 1.72943 16.0719 1.72656 16.0694 1.72461C16.0681 1.72363 16.0671 1.72289 16.0665 1.72238C16.0661 1.72212 16.0659 1.72193 16.0657 1.7218C16.0656 1.72173 16.0656 1.72168 16.0655 1.72164C16.0655 1.72162 16.0655 1.72161 16.0655 1.7216C16.0654 1.72159 16.0654 1.72158 11.1857 8.061ZM11.7614 9.87149C16.6394 3.5308 16.6394 3.5308 16.6394 3.5308C16.6394 3.53079 16.6394 3.53079 16.6394 3.53077C16.6394 3.53075 16.6393 3.53071 16.6392 3.53066C16.6391 3.53055 16.6389 3.53038 16.6386 3.53015C16.638 3.52969 16.6371 3.529 16.6359 3.52808C16.6335 3.52624 16.6299 3.52349 16.6252 3.51988C16.6159 3.51267 16.6021 3.50205 16.5845 3.4885C16.5492 3.4614 16.4988 3.42261 16.4383 3.37599C16.317 3.28266 16.1556 3.15837 15.9941 3.03383C15.8317 2.90863 15.6725 2.78581 15.5543 2.69441C15.4942 2.64786 15.451 2.61435 15.4252 2.59425C15.4105 2.58281 15.4119 2.58381 15.422 2.59181C15.4247 2.59391 15.4476 2.61199 15.479 2.63734C15.4924 2.64821 15.5307 2.67922 15.5797 2.72016C15.6034 2.73994 15.6507 2.7797 15.7096 2.83114C15.7342 2.8527 15.9029 2.99885 16.1031 3.19899L10.4462 8.85584L4.78936 14.5127C4.98975 14.7131 5.15888 14.8596 5.18413 14.8817C5.2436 14.9336 5.29163 14.974 5.31616 14.9945C5.36689 15.0369 5.40758 15.0699 5.42399 15.0831C5.46126 15.1132 5.49242 15.1379 5.50551 15.1482C5.53651 15.1727 5.56748 15.1969 5.58991 15.2144C5.63835 15.2521 5.69934 15.2994 5.76327 15.3489C5.8933 15.4495 6.06185 15.5795 6.22611 15.7061C6.39123 15.8334 6.55546 15.9599 6.67818 16.0543C6.7396 16.1016 6.79076 16.141 6.82661 16.1686C6.84454 16.1824 6.85865 16.1932 6.8683 16.2007C6.87313 16.2044 6.87684 16.2072 6.87936 16.2092C6.88063 16.2101 6.88159 16.2109 6.88225 16.2114C6.88257 16.2116 6.88282 16.2118 6.883 16.212C6.88308 16.212 6.88315 16.2121 6.8832 16.2121C6.88322 16.2121 6.88324 16.2122 6.88325 16.2122C6.88327 16.2122 6.88328 16.2122 11.7614 9.87149ZM10.4462 8.85584L16.0789 3.17496C14.4689 1.57853 12.2933 0.682829 10.026 0.682829V8.68283V16.6828C8.07349 16.6828 6.20001 15.9115 4.81349 14.5367L10.4462 8.85584ZM10.026 8.68283V0.682829C7.75869 0.682829 5.58315 1.57853 3.97308 3.17496L9.60581 8.85584L15.2385 14.5367C13.852 15.9115 11.9785 16.6828 10.026 16.6828V8.68283ZM9.60581 8.85584L3.84705 3.30276C4.0403 3.10235 4.20305 2.95572 4.23021 2.93109C4.28893 2.87781 4.33621 2.83655 4.36028 2.81566C4.40988 2.77261 4.44882 2.73992 4.46291 2.72811C4.49544 2.70086 4.51955 2.68113 4.52328 2.67808C4.53558 2.66801 4.53968 2.66475 4.52804 2.67415C4.50838 2.69002 4.47361 2.71797 4.42324 2.75835C4.32473 2.83729 4.1914 2.94385 4.05465 3.05302C3.91878 3.16149 3.78299 3.26978 3.68093 3.35115C3.62997 3.39178 3.58756 3.42558 3.55793 3.44919C3.54313 3.461 3.53152 3.47024 3.52365 3.47652C3.51971 3.47965 3.51671 3.48205 3.5147 3.48364C3.5137 3.48444 3.51295 3.48504 3.51246 3.48543C3.51221 3.48563 3.51203 3.48577 3.51191 3.48587C3.51186 3.48591 3.51181 3.48595 3.51179 3.48597C3.51178 3.48598 3.51177 3.48598 3.51176 3.48599C3.51176 3.48599 3.51176 3.48599 8.49683 9.74291C13.4819 15.9998 13.4819 15.9998 13.4819 15.9998C13.4819 15.9998 13.482 15.9998 13.482 15.9998C13.482 15.9997 13.4821 15.9997 13.4822 15.9996C13.4823 15.9995 13.4825 15.9993 13.4828 15.9991C13.4834 15.9987 13.4842 15.998 13.4852 15.9972C13.4874 15.9955 13.4905 15.993 13.4946 15.9897C13.5028 15.9832 13.5147 15.9737 13.5298 15.9616C13.5601 15.9375 13.6033 15.9031 13.6552 15.8617C13.7588 15.7791 13.8975 15.6685 14.037 15.5571C14.1757 15.4464 14.3187 15.3322 14.4295 15.2434C14.4837 15.1999 14.5369 15.1572 14.5799 15.1225C14.5995 15.1066 14.6287 15.083 14.6586 15.0585C14.6711 15.0483 14.7022 15.0228 14.7398 14.9913C14.7564 14.9774 14.7973 14.943 14.8484 14.8987C14.8732 14.8771 14.9211 14.8353 14.9803 14.7816C15.008 14.7565 15.1711 14.6096 15.3646 14.4089L9.60581 8.85584ZM8.49683 9.74291L3.51463 3.48371C4.52824 2.67689 5.73457 2.14803 7.01481 1.94926L8.24219 9.85454L9.46957 17.7598C10.9361 17.5321 12.3179 16.9263 13.479 16.0021L8.49683 9.74291ZM8.24219 9.85454L7.01481 1.94926C8.29502 1.75049 9.60492 1.88867 10.8155 2.35017L7.96568 9.82537L5.11588 17.3006C6.50258 17.8292 8.00308 17.9875 9.46957 17.7598L8.24219 9.85454ZM7.96568 9.82537L10.7571 2.32816C10.7378 2.32101 10.7204 2.3098 10.7059 2.29531L5.05318 7.95633L-0.599504 13.6174C1.0374 15.2518 3.00646 16.5155 5.1743 17.3226L7.96568 9.82537ZM5.05318 7.95633L10.7059 2.29531C10.6914 2.28082 10.6801 2.26337 10.6729 2.24416L3.17984 5.04659L-4.31325 7.84902C-3.50292 10.0157 -2.23641 11.9829 -0.599504 13.6174L5.05318 7.95633ZM3.17984 5.04659L10.5923 2.03729C11.0904 3.26438 11.2529 4.602 11.0628 5.91264L3.14561 4.76465L-4.77159 3.61665C-4.98929 5.118 -4.80325 6.65025 -4.23259 8.05588L3.17984 5.04659ZM3.14561 4.76465L11.0628 5.91264C10.8728 7.22329 10.3371 8.45968 9.51095 9.49474L3.25851 4.50404L-2.99392 -0.486661C-3.94031 0.698998 -4.5539 2.1153 -4.77159 3.61665L3.14561 4.76465ZM3.25851 4.50404C9.51665 9.48759 9.51665 9.48759 9.51665 9.48759C9.51665 9.48758 9.51666 9.48757 9.51667 9.48756C9.51669 9.48754 9.51672 9.48749 9.51677 9.48744C9.51686 9.48732 9.51701 9.48714 9.5172 9.48689C9.5176 9.48639 9.5182 9.48564 9.519 9.48464C9.52059 9.48263 9.52299 9.47963 9.52613 9.47569C9.5324 9.4678 9.54165 9.45619 9.55346 9.44137C9.57708 9.41172 9.61089 9.36928 9.65153 9.31828C9.7329 9.21616 9.84121 9.08028 9.94969 8.94432C10.0589 8.8075 10.1655 8.67402 10.2445 8.57536C10.2849 8.52494 10.313 8.48995 10.3291 8.47002C10.3385 8.45826 10.3356 8.462 10.3259 8.47383C10.323 8.47733 10.3037 8.50098 10.277 8.53291C10.2655 8.54665 10.2332 8.58525 10.1906 8.63445C10.17 8.65821 10.1287 8.70564 10.0753 8.76461C10.0528 8.7894 9.90131 8.95816 9.69418 9.15762L4.14504 3.39506L-1.4041 -2.36749C-1.61146 -2.16781 -1.76331 -1.9987 -1.7862 -1.97343C-1.84002 -1.91397 -1.88186 -1.86594 -1.90308 -1.84143C-1.94698 -1.79076 -1.98101 -1.75016 -1.99458 -1.73394C-2.02545 -1.69704 -2.0505 -1.66644 -2.06055 -1.65415C-2.08461 -1.62473 -2.10781 -1.59602 -2.12357 -1.57649C-2.15797 -1.53384 -2.20039 -1.48098 -2.2438 -1.42678C-2.33238 -1.31618 -2.44649 -1.1733 -2.55712 -1.03464C-2.66845 -0.895115 -2.77902 -0.756399 -2.86158 -0.652792C-2.90291 -0.600926 -2.93733 -0.55772 -2.96145 -0.527437C-2.97351 -0.512293 -2.98301 -0.500373 -2.98951 -0.492209C-2.99276 -0.488127 -2.99526 -0.484984 -2.99696 -0.482846C-2.99782 -0.481777 -2.99847 -0.480959 -2.99891 -0.4804C-2.99913 -0.480121 -2.9993 -0.479907 -2.99942 -0.479758C-2.99948 -0.479684 -2.99953 -0.479626 -2.99956 -0.479585C-2.99958 -0.479565 -2.99959 -0.479546 -2.9996 -0.479536C-2.99961 -0.479522 -2.99962 -0.479512 3.25851 4.50404ZM4.14504 3.39506L9.82592 9.02779C11.4223 7.41773 12.318 5.24219 12.318 2.97486H4.31805H-3.68195C-3.68195 1.02233 -2.9106 -0.851146 -1.53584 -2.23766L4.14504 3.39506ZM4.31805 2.97486H12.318C12.318 0.707526 11.4223 -1.46801 9.82592 -3.07807L4.14504 2.55465L-1.53584 8.18738C-2.9106 6.80086 -3.68195 4.92738 -3.68195 2.97486H4.31805ZM4.14504 2.55465L9.70842 -3.19416C9.94072 -2.96935 10.1091 -2.77744 10.1325 -2.75097C10.191 -2.68492 10.2361 -2.63177 10.2584 -2.60534C10.3047 -2.55051 10.3397 -2.50747 10.352 -2.49235C10.3806 -2.45703 10.4012 -2.43097 10.404 -2.42744C10.4139 -2.41498 10.4163 -2.41177 10.4052 -2.42602C10.3861 -2.45052 10.3534 -2.49272 10.307 -2.55269C10.2161 -2.67018 10.0936 -2.82894 9.96853 -2.99136C9.84414 -3.15283 9.71997 -3.3142 9.6267 -3.43545C9.58011 -3.49601 9.54136 -3.54641 9.51428 -3.58162C9.50075 -3.59922 9.49014 -3.61302 9.48294 -3.62238C9.47934 -3.62706 9.47659 -3.63064 9.47476 -3.63302C9.47384 -3.63422 9.47315 -3.63511 9.4727 -3.6357C9.47247 -3.636 9.47231 -3.63621 9.4722 -3.63635C9.47214 -3.63642 9.47211 -3.63647 9.47208 -3.63651C9.47207 -3.63652 9.47206 -3.63653 9.47206 -3.63654C9.47205 -3.63654 9.47206 -3.63654 3.12939 1.23897C-3.21328 6.11447 -3.21327 6.11448 -3.21326 6.1145C-3.21325 6.11451 -3.21323 6.11453 -3.21322 6.11456C-3.21318 6.11461 -3.21313 6.11468 -3.21306 6.11476C-3.21292 6.11494 -3.21273 6.11519 -3.21248 6.11552C-3.21197 6.11618 -3.21122 6.11715 -3.21025 6.11841C-3.2083 6.12095 -3.20544 6.12467 -3.20172 6.12951C-3.19428 6.13919 -3.18341 6.15332 -3.1696 6.17128C-3.14199 6.2072 -3.10258 6.25844 -3.05526 6.31996C-2.96072 6.44285 -2.83414 6.60736 -2.70671 6.77277C-2.58002 6.93724 -2.44959 7.10639 -2.34847 7.23711C-2.29885 7.30125 -2.2508 7.36324 -2.21206 7.41291C-2.19425 7.43575 -2.16863 7.46854 -2.14228 7.50183C-2.13126 7.51577 -2.10409 7.55005 -2.07066 7.59124C-2.056 7.6093 -2.01908 7.65469 -1.97136 7.71126C-1.94833 7.73856 -1.90261 7.79243 -1.8436 7.85904C-1.81965 7.88608 -1.6509 8.0784 -1.41833 8.30347L4.14504 2.55465ZM3.12939 1.23897L8.47013 -4.71725C6.83595 -6.18256 4.70319 -6.96731 2.509 -6.91063L2.71556 1.0867L2.92211 9.08403C1.03257 9.13283 -0.804071 8.45704 -2.21135 7.19518L3.12939 1.23897ZM2.71556 1.0867L2.509 -6.91063C0.314813 -6.85396 -1.7746 -5.96017 -3.33095 -4.41245L2.31014 1.26013L7.95122 6.93271C6.61096 8.26553 4.81165 9.03523 2.92211 9.08403L2.71556 1.0867ZM2.31014 1.26013L-2.9393 -4.77671L-3.56323 -4.23416L1.6862 1.80268L6.93564 7.83952L7.55957 7.29697L2.31014 1.26013ZM1.6862 1.80268L-4.46462 -3.31273C-7.88035 0.794384 -7.03078 5.54284 -6.03857 8.13026C-5.00615 10.8225 -3.21721 13.1193 -1.47327 14.8105C0.271098 16.5022 2.59515 18.1937 5.24941 19.1416C7.66225 20.0033 12.6597 20.9333 16.7157 17.1004L11.221 11.2859L5.72629 5.47142C6.24344 4.98272 6.84396 4.59812 7.48203 4.33329C8.10876 4.07317 8.68718 3.96299 9.15298 3.92756C10.0321 3.8607 10.5679 4.05131 10.6305 4.07367C10.7272 4.10818 10.6445 4.09025 10.4123 3.93566C10.1933 3.7899 9.9309 3.58192 9.66556 3.32461C9.4001 3.06717 9.18657 2.81358 9.03755 2.60302C8.87988 2.38022 8.86288 2.30291 8.90066 2.40143C8.92937 2.4763 9.11679 2.97916 9.07406 3.80521C9.05162 4.23903 8.96449 4.76382 8.75434 5.33058C8.54122 5.90532 8.22986 6.44574 7.83703 6.91808L1.6862 1.80268ZM11.221 11.2859L17.2636 16.5286L17.7579 15.959L11.7152 10.7162L5.67257 5.47352L5.17831 6.04319L11.221 11.2859ZM11.7152 10.7162L17.1516 16.5853C18.7909 15.0669 19.7755 12.9705 19.8973 10.7393L11.9092 10.3032L3.92113 9.86711C4.02573 7.95119 4.87123 6.15103 6.2789 4.84715L11.7152 10.7162ZM11.9092 10.3032L19.8973 10.7393C20.0192 8.50807 19.2686 6.31695 17.8043 4.62908L11.7614 9.87149L5.71842 15.1139C4.46106 13.6645 3.81654 11.783 3.92113 9.86711L11.9092 10.3032Z" fill="#828282" mask="url(#path-1-inside-1_7816_5609)"/>
</svg>
