<svg width="21" height="21" viewBox="0 0 21 21" fill="none" xmlns="http://www.w3.org/2000/svg">
<path d="M7.91696 7.03323H12.66M7.91696 9.22924H12.66M11.2766 14.9382L7.91696 11.4253H9.10271C11.7382 11.4253 11.7382 7.03323 9.10271 7.03323M8.06822 2.3845C8.63225 1.90396 8.91475 1.66321 9.20987 1.52244C9.54671 1.36173 9.91521 1.27832 10.2884 1.27832C10.6616 1.27832 11.0301 1.36173 11.367 1.52244C11.6621 1.66321 11.9446 1.90396 12.5086 2.3845C13.0901 2.87961 13.6804 3.13007 14.457 3.19123C15.1958 3.25045 15.5657 3.28055 15.8744 3.38928C16.5869 3.64168 17.148 4.20183 17.3995 4.91536C17.5082 5.22311 17.5383 5.59298 17.5975 6.33272C17.6587 7.10936 17.9082 7.69863 18.4033 8.28013C18.8848 8.84416 19.1256 9.12667 19.2663 9.42179C19.5925 10.1043 19.5925 10.8974 19.2663 11.5789C19.1256 11.874 18.8848 12.1565 18.4043 12.7205C17.9232 13.2604 17.6388 13.947 17.5975 14.6689C17.5383 15.4077 17.5082 15.7776 17.3995 16.0863C17.2748 16.4382 17.0731 16.7577 16.8091 17.0216C16.545 17.2855 16.2253 17.487 15.8734 17.6114C15.5657 17.7201 15.1958 17.7502 14.456 17.8094C13.6794 17.8706 13.0901 18.1201 12.5086 18.6152C11.9446 19.0967 11.6621 19.3375 11.367 19.4782C11.0301 19.639 10.6616 19.7224 10.2884 19.7224C9.91521 19.7224 9.54671 19.639 9.20987 19.4782C8.91475 19.3375 8.63225 19.0967 8.06822 18.6162C7.52841 18.1351 6.84173 17.8508 6.11983 17.8094C5.38106 17.7502 5.01119 17.7201 4.70248 17.6114C4.35061 17.4868 4.03105 17.285 3.76717 17.021C3.5033 16.757 3.30178 16.4373 3.17736 16.0853C3.06863 15.7776 3.03854 15.4077 2.97932 14.668C2.93805 13.9465 2.65409 13.2602 2.17356 12.7205C1.69205 12.1565 1.45129 11.874 1.30955 11.5789C1.14899 11.242 1.06575 10.8734 1.06592 10.5002C1.06609 10.127 1.14966 9.75855 1.31052 9.42179C1.45129 9.12667 1.69205 8.84416 2.17259 8.28013C2.6774 7.68698 2.91913 7.09285 2.97932 6.33175C3.03854 5.59298 3.06863 5.2231 3.17736 4.91439C3.302 4.56252 3.50372 4.24296 3.76777 3.97909C4.03181 3.71521 4.3515 3.5137 4.70345 3.38928C5.01119 3.28055 5.38106 3.25045 6.12081 3.19123C6.84224 3.14997 7.52853 2.86504 8.06822 2.3845Z" stroke="currentColor" stroke-width="1.26803" stroke-linecap="round" stroke-linejoin="round"/>
</svg>
