<svg xmlns="http://www.w3.org/2000/svg" width="14" height="14" viewBox="0 0 14 14" fill="none">
  <path d="M5.32859 4.55604H8.67145M5.32859 6.10378H8.67145M7.69645 10.1275L5.32859 7.65152H6.1643C8.02182 7.65152 8.02182 4.55604 6.1643 4.55604M5.4352 1.27963C5.83272 0.94095 6.03183 0.771266 6.23983 0.672055C6.47723 0.558784 6.73695 0.5 6.99999 0.5C7.26303 0.5 7.52274 0.558784 7.76015 0.672055C7.96815 0.771266 8.16725 0.94095 8.56478 1.27963C8.97462 1.62858 9.39062 1.80511 9.93799 1.84822C10.4587 1.88995 10.7194 1.91116 10.9369 1.98779C11.4392 2.16569 11.8346 2.56048 12.0118 3.06338C12.0885 3.28027 12.1097 3.54095 12.1514 4.06232C12.1945 4.60969 12.3704 5.02501 12.7193 5.43485C13.0587 5.83238 13.2284 6.03149 13.3276 6.23949C13.5575 6.72049 13.5575 7.27949 13.3276 7.7598C13.2284 7.96781 13.0587 8.16691 12.72 8.56444C12.3809 8.94489 12.1805 9.42886 12.1514 9.93765C12.1097 10.4583 12.0885 10.719 12.0118 10.9366C11.924 11.1846 11.7818 11.4098 11.5957 11.5958C11.4096 11.7818 11.1843 11.9238 10.9363 12.0115C10.7194 12.0881 10.4587 12.1093 9.93731 12.1511C9.38994 12.1942 8.97462 12.37 8.56478 12.719C8.16725 13.0583 7.96815 13.228 7.76015 13.3272C7.52274 13.4405 7.26303 13.4993 6.99999 13.4993C6.73695 13.4993 6.47723 13.4405 6.23983 13.3272C6.03183 13.228 5.83272 13.0583 5.4352 12.7197C5.05474 12.3806 4.57077 12.1802 4.06198 12.1511C3.5413 12.1093 3.28061 12.0881 3.06303 12.0115C2.81504 11.9236 2.58981 11.7815 2.40383 11.5954C2.21786 11.4093 2.07583 11.184 1.98814 10.9359C1.9115 10.719 1.89029 10.4583 1.84856 9.93697C1.81947 9.4285 1.61934 8.94481 1.28066 8.56444C0.941292 8.16691 0.771608 7.96781 0.671713 7.7598C0.558549 7.52235 0.499882 7.26261 0.5 6.99957C0.500119 6.73653 0.55902 6.47684 0.672397 6.23949C0.771608 6.03149 0.941292 5.83238 1.27998 5.43485C1.63577 5.0168 1.80614 4.59806 1.84856 4.06164C1.89029 3.54096 1.9115 3.28027 1.98814 3.06269C2.07599 2.81469 2.21816 2.58947 2.40425 2.40349C2.59035 2.21751 2.81567 2.07549 3.06372 1.98779C3.28061 1.91116 3.5413 1.88995 4.06267 1.84822C4.57113 1.81913 5.05483 1.61831 5.4352 1.27963Z" stroke="white" stroke-linecap="round" stroke-linejoin="round"/>
</svg>
