<svg width="18" height="19" viewBox="0 0 18 19" fill="none" xmlns="http://www.w3.org/2000/svg">
<path d="M8.75222 7.32804C8.17621 7.32804 7.6238 7.09922 7.2165 6.69192C6.80921 6.28462 6.58039 5.73221 6.58039 5.15621C6.58039 4.5802 6.80921 4.02779 7.2165 3.62049C7.6238 3.21319 8.17621 2.98438 8.75222 2.98438C9.32822 2.98438 9.88064 3.21319 10.2879 3.62049C10.6952 4.02779 10.9241 4.5802 10.9241 5.15621C10.9241 5.73221 10.6952 6.28462 10.2879 6.69192C9.88064 7.09922 9.32822 7.32804 8.75222 7.32804ZM4.04659 16.0154C3.47058 16.0154 2.91817 15.7865 2.51087 15.3792C2.10357 14.9719 1.87476 14.4195 1.87476 13.8435C1.87476 13.2675 2.10357 12.7151 2.51087 12.3078C2.91817 11.9005 3.47058 11.6717 4.04659 11.6717C4.62259 11.6717 5.17501 11.9005 5.5823 12.3078C5.9896 12.7151 6.21842 13.2675 6.21842 13.8435C6.21842 14.4195 5.9896 14.9719 5.5823 15.3792C5.17501 15.7865 4.62259 16.0154 4.04659 16.0154ZM13.4579 16.0154C12.8818 16.0154 12.3294 15.7865 11.9221 15.3792C11.5148 14.9719 11.286 14.4195 11.286 13.8435C11.286 13.2675 11.5148 12.7151 11.9221 12.3078C12.3294 11.9005 12.8818 11.6717 13.4579 11.6717C14.0339 11.6717 14.5863 11.9005 14.9936 12.3078C15.4009 12.7151 15.6297 13.2675 15.6297 13.8435C15.6297 14.4195 15.4009 14.9719 14.9936 15.3792C14.5863 15.7865 14.0339 16.0154 13.4579 16.0154Z" stroke="currentColor" stroke-width="1.08592"/>
<path d="M14.5437 10.2245C14.5446 9.40272 14.3703 8.59017 14.0322 7.84112C13.6941 7.09208 13.2002 6.42378 12.5832 5.88086M2.96058 10.2245C2.9596 9.40272 3.13397 8.59017 3.47204 7.84112C3.81011 7.09208 4.30409 6.42378 4.92101 5.88086M7.30424 15.8336C7.77724 15.9553 8.26373 16.0165 8.75212 16.0161C9.24051 16.0165 9.727 15.9553 10.2 15.8336" stroke="currentColor" stroke-width="1.08592" stroke-linecap="round"/>
</svg>
