<svg xmlns="http://www.w3.org/2000/svg" width="40" height="40" viewBox="0 0 40 40" fill="none">
  <path d="M18.125 23.335C18.2839 23.3351 18.4424 23.3388 18.6006 23.3447C17.9361 23.7941 17.499 24.5554 17.499 25.418V26.2725C15.02 26.4246 12.6726 27.4748 10.9062 29.2412C8.99204 31.1555 7.91705 33.7518 7.91699 36.459C7.91699 36.8457 7.76274 37.2168 7.48926 37.4902C7.21578 37.7637 6.84475 37.918 6.45801 37.918C6.07135 37.9179 5.70017 37.7636 5.42676 37.4902C5.15343 37.2168 5 36.8456 5 36.459C5.00391 32.9794 6.38817 29.6431 8.84863 27.1826C11.3091 24.7223 14.6454 23.3388 18.125 23.335ZM14.7764 3.58398C16.3752 2.92174 18.1347 2.74833 19.832 3.08594C21.5291 3.42361 23.088 4.2569 24.3115 5.48047C25.5351 6.70406 26.3684 8.26282 26.7061 9.95996C27.0437 11.6572 26.8703 13.4168 26.208 15.0156C25.5458 16.6144 24.4242 17.981 22.9854 18.9424C21.5466 19.9036 19.8553 20.4169 18.125 20.417C15.8052 20.4147 13.5808 19.4919 11.9404 17.8516C10.3 16.2112 9.37732 13.9869 9.375 11.667C9.37505 9.93654 9.88822 8.24449 10.8496 6.80566C11.811 5.36698 13.1777 4.24618 14.7764 3.58398ZM18.125 5.83398C16.5779 5.83398 15.0939 6.44904 14 7.54297C12.9062 8.63682 12.2911 10.1201 12.291 11.667C12.291 12.8207 12.6335 13.9489 13.2744 14.9082C13.9154 15.8674 14.8267 16.6152 15.8926 17.0566C16.9584 17.498 18.1313 17.6137 19.2627 17.3887C20.3941 17.1636 21.4333 16.6077 22.249 15.792C23.0647 14.9763 23.6206 13.937 23.8457 12.8057C24.0708 11.6741 23.9552 10.5004 23.5137 9.43457C23.0722 8.36887 22.3244 7.45826 21.3652 6.81738C20.4061 6.17649 19.2786 5.83406 18.125 5.83398Z" fill="white"/>
  <path d="M20 30H32.5M32.5 30L27.8125 25M32.5 30L27.8125 35" stroke="white" stroke-width="2.5" stroke-linecap="round" stroke-linejoin="round"/>
</svg>
